<?xml version="1.0" encoding="UTF-8"?>
<svg id="Layer_2" data-name="Layer 2" xmlns="http://www.w3.org/2000/svg" viewBox="0 0 99.53 14.26">
  <defs>
    <style>
      .cls-1 {
        fill: #fff;
      }
    </style>
  </defs>
  <g id="Layer_1-2" data-name="Layer 1">
    <g>
      <path class="cls-1" d="m31.21,10.63v-3.53L24.11,0h-.05l-7.1,7.1v3.58l4.47-4.47.89.89h0s-5.37,5.37-5.37,5.37v1.79h1.79l5.37-5.37,5.37,5.37h1.74v-1.79l-5.34-5.34.92-.92,4.42,4.42Zm-6.21-6.21l-.92.92-.89-.89.92-.92.89.9Z"/>
      <g>
        <path class="cls-1" d="m0,14.26V1.76h3.95c1.08,0,2,.18,2.75.53.75.35,1.36.83,1.83,1.43s.81,1.27,1.02,2.01c.21.74.32,1.5.32,2.28,0,.71-.1,1.44-.3,2.17-.2.73-.53,1.41-.99,2.03-.46.62-1.07,1.12-1.84,1.49-.77.38-1.72.56-2.87.56H0Zm2.06-1.95h2.04c.68,0,1.26-.13,1.72-.38.46-.25.84-.59,1.12-1.01.28-.42.48-.89.61-1.39.12-.51.18-1.01.18-1.52,0-.54-.07-1.06-.2-1.58-.13-.51-.34-.98-.61-1.39-.28-.41-.63-.74-1.07-.99-.43-.25-.96-.37-1.56-.37h-2.23v8.63Z"/>
        <path class="cls-1" d="m12.45,14.26V1.76h2.06v12.5h-2.06Z"/>
        <path class="cls-1" d="m33.65,14.26V1.76h8.11v1.95h-6.05v3.13h3.71v1.95h-3.71v3.52h6.42v1.96h-8.48Z"/>
        <path class="cls-1" d="m44.57,14.26V1.76h5.44c1.02,0,1.83.18,2.43.54s1.02.82,1.27,1.4.38,1.18.38,1.83c0,.48-.09.96-.28,1.45-.18.48-.47.91-.86,1.29-.39.38-.89.65-1.5.82l2.54,5.19h-2.31l-2.44-4.95h-2.61v4.95h-2.06Zm2.06-6.88h3.41c.48,0,.86-.09,1.15-.27.28-.18.48-.41.6-.69.12-.28.18-.57.18-.88,0-.29-.06-.57-.16-.85-.11-.28-.31-.52-.59-.71s-.67-.29-1.17-.29h-3.41v3.7Z"/>
        <path class="cls-1" d="m56.74,14.26V1.76h8.11v1.95h-6.05v3.13h3.71v1.95h-3.71v3.52h6.42v1.96h-8.48Z"/>
        <path class="cls-1" d="m67.66,14.26V1.76h1.96l5.13,7.88c.08.12.16.26.26.43s.18.33.25.5c0-.14-.01-.3-.02-.48,0-.18-.01-.33-.01-.45V1.76h2.05v12.5h-1.88l-5.22-7.91c-.07-.12-.16-.26-.25-.44-.1-.17-.19-.33-.26-.47.02.14.04.3.04.46,0,.16,0,.31,0,.45v7.91h-2.04Z"/>
        <path class="cls-1" d="m83.09,14.26V3.73h-3.53v-1.97h9.12v1.97h-3.53v10.53h-2.06Z"/>
        <path class="cls-1" d="m93.94,14.26V3.73h-3.53v-1.97h9.12v1.97h-3.53v10.53h-2.06Z"/>
      </g>
    </g>
  </g>
</svg>