<?xml version="1.0" encoding="UTF-8"?>
<svg id="Camada_2" data-name="Camada 2" xmlns="http://www.w3.org/2000/svg" xmlns:xlink="http://www.w3.org/1999/xlink" viewBox="0 0 1340.15 401.83">
  <defs>
    <style>
      .cls-1 {
        fill: #fff;
      }

      .cls-2 {
        fill: none;
      }

      .cls-3 {
        clip-path: url(#clippath-1);
      }

      .cls-4 {
        clip-path: url(#clippath-3);
      }

      .cls-5 {
        clip-path: url(#clippath-2);
      }

      .cls-6 {
        clip-path: url(#clippath);
      }
    </style>
    <clipPath id="clippath">
      <rect class="cls-2" width="1340.15" height="401.83"/>
    </clipPath>
    <clipPath id="clippath-1">
      <rect class="cls-2" width="1340.15" height="401.83"/>
    </clipPath>
    <clipPath id="clippath-2">
      <rect class="cls-2" width="1340.15" height="401.83"/>
    </clipPath>
    <clipPath id="clippath-3">
      <rect class="cls-2" width="1340.15" height="401.83"/>
    </clipPath>
  </defs>
  <g id="Layer_1" data-name="Layer 1">
    <g>
      <g class="cls-6">
        <path class="cls-1" d="M1199.58,284.65c7.02-3.41,12.6-8.03,16.68-13.9,4.08-5.88,6.13-12.52,6.13-19.93,0-6.02-1.15-11.51-3.45-16.46-2.33-4.92-6.58-9.36-12.76-13.31-6.18-3.94-15.14-7.39-26.87-10.32-7.11-1.84-11.58-3.74-13.44-5.67-1.86-1.94-2.77-3.9-2.77-5.92,0-3.69,1.41-6.4,4.28-8.09,2.87-1.71,6.43-2.57,10.78-2.57,4.01,0,7.83,1.02,11.46,3.02,3.63,2,6.93,5.32,9.86,9.97l22.69-17.39c-6.18-8.03-12.74-13.51-19.7-16.45-6.95-2.92-15.28-4.4-25.02-4.4-14.05,0-25.07,3.51-33.02,10.54-7.95,7.05-11.93,15.8-11.93,26.3,0,5.09.87,10.04,2.54,14.83,1.7,4.78,5.19,9.12,10.44,12.98,5.25,3.86,13.27,7.08,24.1,9.72,6.33,1.4,11.08,2.79,14.24,4.18,3.17,1.39,5.26,2.86,6.27,4.4,1.01,1.54,1.51,3.4,1.51,5.55,0,3.56-1.44,6.54-4.3,8.92-2.86,2.41-6.99,3.6-12.39,3.6-10.06,0-19.46-4.94-28.27-14.84l-21.07,19.24c13.12,14.07,29.81,21.1,50.04,21.1,8.96,0,16.95-1.72,23.98-5.11M1099.24,284.65c7.04-3.41,12.6-8.03,16.68-13.9,4.1-5.88,6.14-12.52,6.14-19.93,0-6.02-1.15-11.51-3.47-16.46-2.32-4.92-6.58-9.36-12.74-13.31-6.18-3.94-15.14-7.39-26.89-10.32-7.11-1.84-11.58-3.74-13.44-5.67-1.85-1.94-2.78-3.9-2.78-5.92,0-3.69,1.43-6.4,4.28-8.09,2.85-1.71,6.45-2.57,10.78-2.57,4.01,0,7.83,1.02,11.46,3.02,3.64,2,6.93,5.32,9.86,9.97l22.69-17.39c-6.18-8.03-12.74-13.51-19.69-16.45-6.94-2.92-15.28-4.4-25.01-4.4-14.07,0-25.07,3.51-33.03,10.54-7.93,7.05-11.93,15.8-11.93,26.3,0,5.09.85,10.04,2.55,14.83,1.7,4.78,5.17,9.12,10.42,12.98,5.25,3.86,13.28,7.08,24.1,9.72,6.34,1.4,11.08,2.79,14.24,4.18,3.17,1.39,5.27,2.86,6.26,4.4,1.01,1.54,1.5,3.4,1.5,5.55,0,3.56-1.43,6.54-4.3,8.92-2.85,2.41-6.98,3.6-12.39,3.6-10.04,0-19.46-4.94-28.27-14.84l-21.07,19.24c13.12,14.07,29.81,21.1,50.04,21.1,8.95,0,16.94-1.72,23.97-5.11M981.78,197.3c5.32,4.79,8.84,10.5,10.54,17.16h-59.55c1.7-7.27,5.16-13.14,10.43-17.63,5.26-4.48,11.57-6.72,19-6.72,7.73,0,14.24,2.4,19.58,7.19M994.88,282.57c9.56-4.79,16.76-10.98,21.54-18.55l-24.32-18.3c-2.8,4.62-6.7,8.5-11.71,11.58-5.03,3.09-10.94,4.64-17.73,4.64-7.89,0-14.4-2.23-19.58-6.72-5.17-4.48-8.61-10.28-10.31-17.38h90.13c.3-2,.55-3.93.69-5.79.16-1.86.25-3.63.25-5.33,0-11.59-2.59-22.2-7.78-31.85-5.17-9.67-12.36-17.34-21.54-23.08-9.18-5.71-19.81-8.57-31.86-8.57s-22.75,2.86-32.09,8.57c-9.35,5.74-16.71,13.41-22.12,23.08-5.42,9.65-8.11,20.26-8.11,31.85s2.58,22.12,7.75,31.63c5.16,9.5,12.47,17.1,21.9,22.81,9.41,5.71,20.3,8.59,32.66,8.59,11.89,0,22.63-2.41,32.22-7.19M805.34,286.73v-66.03c0-10.5,2.5-18.1,7.53-22.83,5.03-4.7,10.86-7.07,17.5-7.07,7.73,0,13.99,2.37,18.78,7.07,4.78,4.73,7.18,12.32,7.18,22.83v66.03h31.27v-73.68c0-10.19-2-19-6.02-26.42-4.01-7.41-9.5-13.14-16.45-17.14-6.94-4.02-14.74-6.01-23.39-6.01-18.23,0-30.51,6.79-36.86,20.38v-17.61h-30.8v120.49h31.26ZM755.53,117.59h-31.27v169.14h31.27V117.59ZM705.71,117.59h-31.28v169.14h31.28V117.59ZM618.72,197.3c5.32,4.79,8.83,10.5,10.54,17.16h-59.54c1.69-7.27,5.16-13.14,10.42-17.63,5.26-4.48,11.59-6.72,19-6.72,7.73,0,14.24,2.4,19.59,7.19M631.8,282.57c9.58-4.79,16.76-10.98,21.56-18.55l-24.33-18.3c-2.79,4.62-6.69,8.5-11.7,11.58-5.02,3.09-10.94,4.64-17.73,4.64-7.87,0-14.4-2.23-19.57-6.72-5.17-4.48-8.62-10.28-10.31-17.38h90.13c.3-2,.54-3.93.68-5.79.17-1.86.24-3.63.24-5.33,0-11.59-2.59-22.2-7.76-31.85-5.17-9.67-12.36-17.34-21.55-23.08-9.19-5.71-19.81-8.57-31.87-8.57s-22.74,2.86-32.08,8.57c-9.34,5.74-16.73,13.41-22.13,23.08-5.41,9.65-8.11,20.26-8.11,31.85s2.59,22.12,7.77,31.63c5.16,9.5,12.47,17.1,21.88,22.81,9.43,5.71,20.32,8.59,32.67,8.59,11.9,0,22.64-2.41,32.21-7.19"/>
      </g>
      <g class="cls-3">
        <path class="cls-1" d="M52.01,39.88c2.36-1.22,5.32-1.85,8.81-1.85,19.06,0,51.66,18.32,79.27,44.55,22.84,21.69,52.37,52.83,87.76,92.53.12.15.23.28.33.43l5.21,6.42c3,3.71,5.71,7.06,8.46,10.39-17.74,20.53-29.74,34.89-31.11,36.54-.33.41-.66.81-.96,1.25-4.48,4.94-9.33,10.28-14.64,16.11-15.5,17.04-34.49,26.4-53.45,26.4-5.93,0-11.89-.89-17.69-2.66-19.43-5.96-66.38-31.7-82.51-142.11-7-48.05-3.08-80.95,10.53-87.99M494.01,127.87c-16.12,110.4-63.09,136.15-82.52,142.11-5.8,1.77-11.76,2.66-17.69,2.66-18.98,0-37.95-9.36-53.46-26.4-5.31-5.83-10.16-11.17-14.62-16.1-.31-.43-.62-.84-.96-1.26-.55-.64-12.82-15.35-31.18-36.61,2.51-3.05,4.96-6.08,7.6-9.34l5.05-6.25c36.05-40.48,66.05-72.13,89.18-94.1,27.62-26.22,60.2-44.55,79.27-44.55,3.5,0,6.45.63,8.79,1.85,13.63,7.04,17.56,39.94,10.54,87.99M500.98,6.09c-18.9-9.78-43.24-7.79-71.57,6-19.61,9.55-41.56,25.2-60.23,42.91-23.79,22.6-54.09,54.52-90.04,94.81-.44.46-.87.93-1.25,1.4l-.12.15c-3.4,3.82-6.76,7.61-10.03,11.3-29.09-32.96-68.95-76.78-101.45-107.65-18.67-17.72-40.6-33.37-60.23-42.91C77.74-1.7,53.41-3.69,34.5,6.09,3.7,22.07-6.34,63.69,3.83,133.37c13.56,92.89,53.31,155.94,109.03,172.99,9.31,2.85,18.92,4.28,28.56,4.28h.01c30,0,59.06-13.76,81.83-38.78,19.8-21.73,33.77-37.26,44.44-49.32,10.42,11.76,24.43,27.28,44.48,49.32,22.79,25.01,51.85,38.78,81.83,38.78,9.64,0,19.27-1.43,28.59-4.28,55.73-17.05,95.47-80.1,109.03-172.99,10.19-69.69.14-111.3-30.66-127.28"/>
      </g>
      <g class="cls-5">
        <path class="cls-1" d="M1317.39,401.83c7.25,0,12.86-2.05,16.82-6.14,3.97-4.1,5.95-9.84,5.95-17.18s-1.95-12.78-5.87-16.59c-3.9-3.81-9.53-5.72-16.89-5.72h-47.46c-1.81,0-3.26-.56-4.39-1.7-1.13-1.13-1.69-2.69-1.69-4.65,0-3.95,2.02-5.95,6.08-5.95h63.44v-16.26h-64.44c-8.29,0-14.64,1.97-19,5.88-4.39,3.9-6.58,9.48-6.58,16.74s2.16,12.64,6.51,16.46c4.32,3.81,10.69,5.71,19.07,5.71h44.79c3.95,0,5.95,2.17,5.95,6.51s-1.99,6.64-5.95,6.64h-69.24v16.25h72.91ZM1210.43,343.9c4.05,0,6.08,1.99,6.08,5.95,0,1.96-.54,3.52-1.63,4.65-1.09,1.14-2.58,1.7-4.45,1.7h-52.29c2.28-8.18,8.25-12.3,17.97-12.3h34.33ZM1233.33,401.83v-16.25h-57.22c-10.08,0-16.12-4.37-18.1-13.15h53.42c17.04,0,25.58-7.39,25.58-22.17,0-7.26-2.19-12.83-6.58-16.74-4.39-3.92-10.71-5.88-19-5.88h-35.32c-12.64,0-22.47,3.14-29.54,9.41-7.05,6.26-10.59,15.52-10.59,27.76s3.55,21.36,10.59,27.62c7.07,6.27,16.91,9.4,29.54,9.4h57.22ZM1131.03,401.83v-16.25h-48.76c-6.11,0-10.81-1.69-14.05-5.08-3.25-3.39-4.87-8.63-4.87-15.69s1.62-12.44,4.87-15.83c3.24-3.39,7.93-5.08,14.05-5.08h47.34v-16.26h-47.34c-12.61,0-22.46,3.14-29.53,9.41-7.07,6.26-10.59,15.52-10.59,27.76s3.52,21.36,10.59,27.62c7.08,6.27,16.92,9.4,29.53,9.4h48.76ZM1032.39,300.38h-20.77v15.98h20.77v-15.98ZM1032.26,328.36h-20.48v72.77h20.48v-72.77ZM974.74,401.13l30.67-72.77h-21.48l-23.73,56.37h-7.07l-23.75-56.37h-21.46l30.65,72.77h36.17ZM879.24,343.9c4.03,0,6.08,1.99,6.08,5.95,0,1.96-.55,3.52-1.63,4.65-1.1,1.14-2.58,1.7-4.45,1.7h-52.29c2.26-8.18,8.24-12.3,17.94-12.3h34.35ZM902.13,401.83v-16.25h-57.24c-10.07,0-16.11-4.37-18.09-13.15h53.41c17.07,0,25.59-7.39,25.59-22.17,0-7.26-2.2-12.83-6.58-16.74-4.37-3.92-10.72-5.88-19.02-5.88h-35.32c-12.61,0-22.46,3.14-29.53,9.41-7.07,6.26-10.59,15.52-10.59,27.76s3.52,21.36,10.59,27.62c7.07,6.27,16.92,9.4,29.53,9.4h57.24ZM742.59,401.13c-12.63,0-22.46-3.12-29.53-9.33-7.06-6.22-10.59-15.2-10.59-26.99s3.54-20.91,10.59-27.14c7.07-6.21,16.91-9.31,29.53-9.31h47.33v16.26h-47.33c-6.13,0-10.82,1.66-14.05,5.02-3.26,3.34-4.89,8.41-4.89,15.18s1.63,11.71,4.89,15.06c3.24,3.34,7.92,5.02,14.05,5.02h48.74v16.24h-48.74ZM774.39,300.1h20.48v101.04h-20.48v-101.04Z"/>
      </g>
      <g class="cls-4">
        <path class="cls-1" d="M1312.71,293.97h3.16c2.46,0,4.74-.17,4.74-3.06,0-2.38-2.05-2.84-4.06-2.84h-3.84v5.91h0ZM1312.71,302.4c0,.99-.46,1.76-1.27,1.76s-1.28-.77-1.28-1.76v-15.67c0-.46.16-.71.81-.71h6c4.14,0,6.18,1.65,6.18,5.02s-2.09,4.6-4.32,4.9l3.75,5.83c.3.47.58.86.58,1.32,0,.51-.47,1.07-1.27,1.07-.51,0-1.03-.26-1.5-1.03l-4.32-7.11h-3.34v6.38h0ZM1315.98,308.6c7.4,0,13.58-6.23,13.58-13.89s-6.18-13.9-13.58-13.9-13.64,6.21-13.64,13.9c0,7.66,6.21,13.89,13.64,13.89M1315.98,278.05c9.18,0,16.66,7.45,16.66,16.66s-7.48,16.63-16.66,16.63-16.67-7.44-16.67-16.63,7.44-16.66,16.67-16.66"/>
      </g>
    </g>
  </g>
</svg>