<?xml version="1.0" encoding="UTF-8"?>
<svg id="Camada_2" data-name="Camada 2" xmlns="http://www.w3.org/2000/svg" viewBox="0 0 1230.57 242.84">
  <defs>
    <style>
      .cls-1 {
        fill: #fff;
      }
    </style>
  </defs>
  <g id="Layer_1" data-name="Layer 1">
    <g>
      <g>
        <path class="cls-1" d="M7.31,145.81c-4.88-4.58-7.31-11.04-7.31-19.35V27.96c0-8.02,2.4-14.33,7.21-18.92,4.8-4.59,11.51-6.89,20.11-6.89h66.66c5.59,0,8.39,2.3,8.39,6.89,0,2.01-.72,3.58-2.15,4.73s-3.51,1.73-6.24,1.73H27.52c-3.43,0-6.2,1.15-8.28,3.43-2.08,2.3-3.12,5.31-3.12,9.03v41.08h61.51c5.59,0,8.39,2.3,8.39,6.89,0,2.15-.76,3.8-2.26,4.94-1.51,1.15-3.55,1.72-6.13,1.72H16.13v44.31c0,3.73,1.04,6.74,3.12,9.03,2.08,2.3,4.85,3.44,8.28,3.44h71.19c5.59,0,8.39,2.22,8.39,6.66,0,2.16-.76,3.81-2.26,4.95-1.51,1.15-3.55,1.72-6.13,1.72H27.74c-8.74,0-15.56-2.3-20.43-6.89Z"/>
        <path class="cls-1" d="M172.91,144.63c-5.16-6.81-10.03-17.81-14.63-33.02L127.54,9.68c-.43-1.58-.65-2.87-.65-3.87,0-3.87,2.5-5.81,7.52-5.81,2.58,0,4.52.54,5.81,1.62,1.29,1.07,2.36,3.11,3.23,6.12l30.54,102.38c3.44,11.47,6.63,19.54,9.57,24.19,2.94,4.67,6.35,6.99,10.22,6.99s7.09-2.36,10.1-7.1c3.01-4.73,6.24-12.75,9.68-24.08L244.09,7.52c.86-2.86,1.93-4.84,3.23-5.9,1.29-1.08,3.23-1.62,5.81-1.62,5.01,0,7.52,1.93,7.52,5.81,0,1-.22,2.3-.64,3.87l-30.98,101.93c-4.88,15.92-9.93,27.1-15.15,33.56-5.24,6.44-11.94,9.67-20.11,9.67-8.75,0-15.7-3.4-20.86-10.21Z"/>
        <path class="cls-1" d="M316.14,145.28c-11.61-6.39-20.76-15.45-27.43-27.21-6.66-11.75-10-25.31-10-40.65s3.34-29.06,10-40.76c6.67-11.68,15.81-20.72,27.43-27.09,11.61-6.38,24.66-9.57,39.14-9.57s27.53,3.2,39.15,9.57c11.61,6.38,20.76,15.41,27.42,27.09,6.67,11.69,10.01,25.28,10.01,40.76s-3.34,28.9-10.01,40.65c-6.66,11.76-15.8,20.82-27.42,27.21-11.61,6.38-24.66,9.56-39.15,9.56s-27.52-3.19-39.14-9.56ZM386.36,133.56c9.1-5.02,16.26-12.3,21.5-21.83,5.23-9.53,7.85-20.96,7.85-34.3s-2.69-25.01-8.06-34.63c-5.38-9.6-12.68-16.84-21.93-21.72-9.25-4.88-19.54-7.32-30.86-7.32s-21.77,2.51-30.87,7.53c-9.1,5.01-16.23,12.33-21.39,21.93-5.17,9.6-7.75,21.01-7.75,34.19s2.62,24.77,7.86,34.3c5.23,9.53,12.4,16.81,21.5,21.83,9.1,5.01,19.46,7.52,31.07,7.52s21.97-2.51,31.08-7.52Z"/>
        <path class="cls-1" d="M548.3,145.28c-11.26-6.39-19.97-15.42-26.13-27.1-6.17-11.68-9.25-25.2-9.25-40.54s3.08-29.1,9.25-40.86c6.16-11.75,14.87-20.82,26.13-27.2,11.25-6.38,24.26-9.57,39.03-9.57,12.33,0,23.69,2.08,34.09,6.24,10.4,4.16,18.53,9.97,24.41,17.42,1.15,1.28,1.72,2.86,1.72,4.73,0,2.3-1,4.16-3.01,5.59-1.28.86-2.73,1.29-4.3,1.29-2.73,0-5.02-1.08-6.89-3.23-4.59-5.88-10.83-10.4-18.71-13.55-7.9-3.16-17-4.74-27.32-4.74-11.9,0-22.23,2.58-30.97,7.75-8.75,5.16-15.45,12.55-20.11,22.15-4.66,9.6-6.99,20.93-6.99,33.98s2.33,24.12,6.99,33.65c4.66,9.54,11.4,16.89,20.22,22.05,8.82,5.16,19.18,7.74,31.07,7.74,11.04,0,20.68-1.61,28.93-4.84,8.24-3.23,14.73-7.71,19.46-13.45,2.15-2.29,4.44-3.43,6.89-3.43,1.72,0,3.15.5,4.3,1.5,2.01,1.72,3.01,3.59,3.01,5.59,0,1.73-.65,3.37-1.93,4.94-5.89,7.17-14.23,12.87-25.05,17.1-10.83,4.23-22.7,6.35-35.6,6.35-14.91,0-27.99-3.19-39.25-9.56Z"/>
        <path class="cls-1" d="M686.68,145.7c-4.88-4.65-7.31-11.07-7.31-19.25V8.6c0-2.72.72-4.84,2.15-6.35,1.43-1.5,3.36-2.26,5.81-2.26,2.58,0,4.59.76,6.02,2.26,1.43,1.51,2.15,3.63,2.15,6.35v118.29c0,3.73,1.04,6.74,3.12,9.03,2.08,2.3,4.84,3.44,8.28,3.44h71.61c5.59,0,8.39,2.22,8.39,6.66,0,2.16-.72,3.81-2.15,4.95-1.43,1.15-3.51,1.72-6.24,1.72h-71.4c-8.75,0-15.56-2.32-20.43-6.99Z"/>
        <path class="cls-1" d="M822.6,152.59c-1.43-1.5-2.15-3.62-2.15-6.35V8.6c0-2.72.72-4.84,2.15-6.35,1.43-1.5,3.36-2.26,5.81-2.26,2.58,0,4.59.79,6.02,2.36,1.43,1.58,2.15,3.66,2.15,6.24v137.64c0,2.58-.72,4.66-2.15,6.24-1.43,1.58-3.44,2.36-6.02,2.36-2.44,0-4.37-.75-5.81-2.26Z"/>
        <path class="cls-1" d="M878.52,152.59c-1.44-1.5-2.16-3.62-2.16-6.35V58.5c0-11.9,2.55-22.27,7.64-31.07,5.08-8.82,12.37-15.6,21.82-20.32,9.47-4.74,20.58-7.1,33.34-7.1s23.84,2.36,33.22,7.1c9.39,4.73,16.64,11.51,21.73,20.32,5.08,8.81,7.63,19.18,7.63,31.07v87.74c0,2.73-.69,4.85-2.04,6.35-1.36,1.51-3.34,2.26-5.91,2.26-2.44,0-4.41-.75-5.91-2.26-1.51-1.5-2.27-3.62-2.27-6.35V57.85c0-13.91-4.08-24.73-12.25-32.48-8.17-7.74-19.57-11.61-34.19-11.61s-25.7,3.94-34.1,11.83c-8.39,7.89-12.57,18.64-12.57,32.26v88.39c0,2.73-.72,4.85-2.15,6.35-1.44,1.51-3.44,2.26-6.02,2.26-2.44,0-4.37-.75-5.81-2.26Z"/>
        <path class="cls-1" d="M1043.69,152.59c-1.43-1.5-2.15-3.62-2.15-6.35V8.6c0-2.72.72-4.84,2.15-6.35,1.43-1.5,3.36-2.26,5.81-2.26,2.58,0,4.59.79,6.02,2.36,1.43,1.58,2.15,3.66,2.15,6.24v137.64c0,2.58-.72,4.66-2.15,6.24-1.43,1.58-3.44,2.36-6.02,2.36-2.44,0-4.37-.75-5.81-2.26Z"/>
        <path class="cls-1" d="M1128.75,145.28c-11.26-6.39-19.97-15.42-26.13-27.1-6.17-11.68-9.25-25.2-9.25-40.54s3.08-29.1,9.25-40.86c6.16-11.75,14.87-20.82,26.13-27.2,11.25-6.38,24.26-9.57,39.03-9.57,12.33,0,23.69,2.08,34.09,6.24,10.4,4.16,18.53,9.97,24.41,17.42,1.15,1.28,1.72,2.86,1.72,4.73,0,2.3-1,4.16-3.01,5.59-1.28.86-2.73,1.29-4.3,1.29-2.73,0-5.02-1.08-6.89-3.23-4.59-5.88-10.83-10.4-18.71-13.55-7.9-3.16-17-4.74-27.32-4.74-11.9,0-22.23,2.58-30.97,7.75-8.75,5.16-15.45,12.55-20.11,22.15-4.66,9.6-6.99,20.93-6.99,33.98s2.33,24.12,6.99,33.65c4.66,9.54,11.4,16.89,20.22,22.05,8.82,5.16,19.18,7.74,31.07,7.74,11.04,0,20.68-1.61,28.93-4.84,8.24-3.23,14.73-7.71,19.46-13.45,2.15-2.29,4.44-3.43,6.89-3.43,1.72,0,3.15.5,4.3,1.5,2.01,1.72,3.01,3.59,3.01,5.59,0,1.73-.65,3.37-1.93,4.94-5.89,7.17-14.23,12.87-25.05,17.1-10.83,4.23-22.7,6.35-35.6,6.35-14.91,0-27.99-3.19-39.25-9.56Z"/>
      </g>
      <g>
        <path class="cls-1" d="M267.86,235.72c-1.52-.86-2.7-2.08-3.52-3.65-.83-1.58-1.25-3.4-1.25-5.47s.41-3.92,1.25-5.5c.82-1.59,2-2.82,3.52-3.67,1.52-.86,3.27-1.29,5.26-1.29,1.67,0,3.2.28,4.6.84s2.5,1.34,3.3,2.34c.15.18.23.39.23.64,0,.31-.14.56-.4.76-.18.12-.37.18-.58.18-.37,0-.68-.15-.93-.43-.62-.79-1.46-1.4-2.52-1.83-1.07-.42-2.3-.64-3.69-.64-1.6,0-2.99.35-4.17,1.05-1.18.7-2.09,1.69-2.72,2.98-.63,1.29-.94,2.82-.94,4.58s.31,3.26.94,4.54c.63,1.28,1.54,2.28,2.73,2.97,1.19.7,2.59,1.04,4.19,1.04,1.49,0,2.8-.22,3.9-.65,1.11-.43,1.99-1.04,2.63-1.81.28-.3.6-.46.92-.46.24,0,.42.07.58.2.27.24.41.49.41.76,0,.24-.09.46-.26.67-.79.97-1.92,1.74-3.37,2.31-1.46.57-3.06.86-4.81.86-2.01,0-3.77-.43-5.29-1.29Z"/>
        <path class="cls-1" d="M293.77,235.78c-.66-.63-.99-1.49-.99-2.6v-15.89c0-.36.1-.65.29-.85.2-.21.45-.3.78-.3s.62.1.81.3c.19.21.28.49.28.85v15.95c0,.51.14.91.42,1.22.28.31.66.47,1.12.47h9.65c.76,0,1.14.29,1.14.89,0,.29-.1.52-.29.67-.2.16-.47.24-.84.24h-9.62c-1.18,0-2.1-.31-2.76-.94Z"/>
        <path class="cls-1" d="M319.35,236.71c-.2-.21-.29-.49-.29-.86v-18.56c0-.36.1-.65.29-.85.19-.21.45-.3.78-.3s.62.11.8.32c.2.21.29.49.29.83v18.56c0,.35-.1.63-.29.84-.19.22-.46.32-.8.32s-.6-.11-.78-.3ZM319.41,213.23c0-.13.03-.26.08-.37l1.8-4.09c.23-.54.55-.81.95-.81.2,0,.38.05.55.15.39.2.59.46.59.78,0,.18-.06.36-.18.58l-2.27,4c-.17.33-.42.49-.76.49-.11,0-.23-.03-.34-.09-.29-.13-.43-.34-.43-.64Z"/>
        <path class="cls-1" d="M334.13,236.71c-.19-.21-.28-.49-.28-.86v-11.83c0-1.6.34-3,1.03-4.19.69-1.19,1.67-2.1,2.94-2.74,1.28-.64,2.78-.96,4.49-.96s3.22.32,4.48.96,2.24,1.55,2.92,2.74c.69,1.19,1.03,2.59,1.03,4.19v11.83c0,.37-.09.66-.27.86-.19.2-.45.3-.79.3s-.6-.11-.79-.3c-.21-.21-.3-.49-.3-.86v-11.92c0-1.87-.56-3.34-1.66-4.37-1.1-1.05-2.64-1.57-4.61-1.57s-3.46.54-4.6,1.6c-1.13,1.06-1.7,2.51-1.7,4.35v11.92c0,.37-.09.66-.28.86-.2.2-.46.3-.81.3-.32,0-.59-.11-.78-.3Z"/>
        <path class="cls-1" d="M363.65,236.71c-.2-.21-.29-.49-.29-.86v-18.56c0-.36.1-.65.29-.85.19-.21.45-.3.78-.3s.62.11.8.32c.2.21.29.49.29.83v18.56c0,.35-.1.63-.29.84-.19.22-.46.32-.8.32s-.6-.11-.78-.3Z"/>
        <path class="cls-1" d="M382.37,235.72c-1.52-.86-2.7-2.08-3.52-3.65-.83-1.58-1.25-3.4-1.25-5.47s.41-3.92,1.25-5.5c.82-1.59,2-2.82,3.52-3.67,1.52-.86,3.27-1.29,5.26-1.29,1.67,0,3.2.28,4.6.84,1.4.56,2.5,1.34,3.3,2.34.15.18.23.39.23.64,0,.31-.14.56-.4.76-.18.12-.37.18-.58.18-.37,0-.68-.15-.93-.43-.62-.79-1.46-1.4-2.52-1.83-1.07-.42-2.3-.64-3.69-.64-1.6,0-2.99.35-4.17,1.05-1.18.7-2.09,1.69-2.72,2.98-.63,1.29-.94,2.82-.94,4.58s.31,3.26.94,4.54c.63,1.28,1.54,2.28,2.73,2.97,1.19.7,2.59,1.04,4.19,1.04,1.49,0,2.8-.22,3.9-.65,1.11-.43,1.99-1.04,2.63-1.81.28-.3.6-.46.92-.46.24,0,.42.07.58.2.27.24.41.49.41.76,0,.24-.09.46-.26.67-.79.97-1.92,1.74-3.37,2.31-1.46.57-3.06.86-4.81.86-2.01,0-3.77-.43-5.29-1.29Z"/>
        <path class="cls-1" d="M407.37,236.71c-.19-.21-.28-.49-.28-.86v-11.34c0-2.63.74-4.68,2.22-6.16s3.53-2.22,6.16-2.22,4.66.75,6.15,2.24c1.49,1.48,2.23,3.53,2.23,6.14v11.34c0,.37-.09.66-.28.86-.2.2-.46.3-.81.3-.32,0-.6-.11-.79-.3-.21-.21-.3-.49-.3-.86v-6.52h-12.39v6.52c0,.37-.09.66-.28.86-.2.2-.46.3-.81.3-.32,0-.59-.11-.78-.3ZM421.64,227.53v-3.1c0-2.07-.53-3.66-1.6-4.78-1.06-1.11-2.59-1.67-4.58-1.67s-3.55.55-4.61,1.66c-1.06,1.1-1.6,2.7-1.6,4.79v3.1h12.39Z"/>
        <path class="cls-1" d="M451.6,235.78c-.66-.63-.99-1.49-.99-2.6v-13.28c0-1.08.32-1.93.98-2.55.65-.62,1.55-.92,2.71-.92h4.06c2.01,0,3.77.42,5.26,1.26,1.5.84,2.66,2.03,3.47,3.55.8,1.53,1.22,3.32,1.22,5.37s-.41,3.84-1.22,5.36c-.81,1.51-1.97,2.69-3.47,3.52-1.49.83-3.25,1.25-5.26,1.25h-4c-1.18,0-2.1-.31-2.76-.94ZM458.07,234.92c2.55,0,4.53-.73,5.93-2.18,1.4-1.45,2.1-3.5,2.1-6.15s-.71-4.71-2.12-6.17c-1.41-1.47-3.38-2.21-5.91-2.21h-3.74c-.46,0-.83.16-1.12.46-.28.31-.42.72-.42,1.22v13.34c0,.51.14.91.42,1.22.28.31.66.47,1.12.47h3.74Z"/>
        <path class="cls-1" d="M480.48,235.79c-.66-.62-.99-1.48-.99-2.61v-13.28c0-1.08.32-1.93.98-2.55.65-.62,1.55-.92,2.71-.92h8.98c.76,0,1.14.3,1.14.92,0,.27-.1.49-.29.64-.2.16-.47.24-.84.24h-8.96c-.46,0-.83.16-1.12.46-.28.31-.42.72-.42,1.22v5.54h8.3c.76,0,1.13.31,1.13.93,0,.28-.1.51-.3.67-.21.15-.48.23-.82.23h-8.3v5.97c0,.51.14.91.42,1.22.28.31.66.47,1.12.47h9.59c.76,0,1.14.29,1.14.89,0,.29-.11.52-.3.67-.21.16-.48.24-.83.24h-9.56c-1.18,0-2.1-.31-2.76-.93Z"/>
        <path class="cls-1" d="M521.11,235.79c-.66-.62-.99-1.48-.99-2.61v-13.28c0-1.08.32-1.93.98-2.55.65-.62,1.55-.92,2.71-.92h8.98c.76,0,1.14.3,1.14.92,0,.27-.1.49-.29.64-.2.16-.47.24-.84.24h-8.96c-.46,0-.83.16-1.12.46-.28.31-.42.72-.42,1.22v5.54h8.3c.76,0,1.13.31,1.13.93,0,.28-.1.51-.3.67-.21.15-.48.23-.82.23h-8.3v5.97c0,.51.14.91.42,1.22.28.31.66.47,1.12.47h9.59c.76,0,1.14.29,1.14.89,0,.29-.11.52-.3.67-.21.16-.48.24-.83.24h-9.56c-1.18,0-2.1-.31-2.76-.93Z"/>
        <path class="cls-1" d="M548.87,236.06c-1.55-.63-2.77-1.49-3.64-2.59-.16-.2-.23-.39-.23-.61,0-.27.14-.53.43-.78.16-.12.31-.18.49-.18.35,0,.66.17.93.5.79.86,1.8,1.54,3,2.01,1.21.47,2.58.71,4.13.71,1.7,0,3.01-.31,3.94-.94.93-.63,1.39-1.52,1.39-2.68,0-1.01-.45-1.81-1.34-2.43-.9-.62-2.42-1.18-4.57-1.66-2.81-.62-4.82-1.39-6.04-2.33-1.24-.93-1.84-2.18-1.84-3.73s.68-2.87,2.04-3.82c1.36-.93,3.21-1.4,5.52-1.4,1.77,0,3.35.31,4.78.93,1.42.62,2.42,1.44,3.03,2.49.11.2.17.37.17.55,0,.31-.16.58-.49.81-.14.08-.28.12-.46.12-.43,0-.76-.17-.99-.5-.56-.8-1.35-1.43-2.37-1.86-1.03-.44-2.25-.66-3.66-.66-3.57,0-5.37,1.12-5.37,3.34,0,.68.19,1.25.56,1.7.36.45.96.86,1.78,1.22.82.36,1.97.72,3.44,1.06,2.85.68,4.91,1.49,6.17,2.45,1.27.96,1.89,2.2,1.89,3.73,0,1.7-.69,3.04-2.05,4.03-1.36.98-3.2,1.48-5.52,1.48-1.85,0-3.56-.31-5.12-.95Z"/>
        <path class="cls-1" d="M578.99,236.71c-.18-.21-.27-.49-.27-.86v-17.63h-6.64c-.34,0-.62-.07-.82-.22s-.3-.36-.3-.66c0-.62.38-.92,1.13-.92h15.49c.76,0,1.13.3,1.13.92,0,.27-.1.49-.28.64-.2.16-.48.24-.84.24h-6.64v17.63c0,.37-.1.66-.3.86-.21.2-.48.3-.82.3s-.62-.11-.8-.3Z"/>
        <path class="cls-1" d="M600.5,235.79c-.66-.62-.99-1.48-.99-2.61v-13.28c0-1.08.32-1.93.98-2.55.65-.62,1.55-.92,2.71-.92h8.98c.76,0,1.14.3,1.14.92,0,.27-.1.49-.29.64-.2.16-.47.24-.84.24h-8.96c-.46,0-.83.16-1.12.46-.28.31-.42.72-.42,1.22v5.54h8.3c.76,0,1.13.31,1.13.93,0,.28-.1.51-.3.67-.21.15-.48.23-.82.23h-8.3v5.97c0,.51.14.91.42,1.22.28.31.66.47,1.12.47h9.59c.76,0,1.14.29,1.14.89,0,.29-.11.52-.3.67-.21.16-.48.24-.83.24h-9.56c-1.18,0-2.1-.31-2.76-.93ZM606.27,213.23c0-.13.03-.26.09-.37l1.8-4.09c.24-.54.56-.81.96-.81.2,0,.37.05.55.15.39.2.58.46.58.78,0,.18-.06.36-.17.58l-2.27,4c-.18.33-.42.49-.76.49-.12,0-.24-.03-.34-.09-.29-.13-.44-.34-.44-.64Z"/>
        <path class="cls-1" d="M632.11,236.71c-.18-.21-.27-.49-.27-.86v-17.63h-6.64c-.34,0-.62-.07-.82-.22-.21-.15-.3-.36-.3-.66,0-.62.38-.92,1.13-.92h15.49c.76,0,1.13.3,1.13.92,0,.27-.1.49-.28.64-.2.16-.48.24-.84.24h-6.64v17.63c0,.37-.1.66-.3.86-.21.2-.48.3-.82.3s-.62-.11-.8-.3Z"/>
        <path class="cls-1" d="M653.83,236.71c-.2-.21-.29-.49-.29-.86v-18.56c0-.36.1-.65.29-.85.19-.21.45-.3.78-.3s.62.11.8.32c.2.21.29.49.29.83v18.56c0,.35-.1.63-.29.84-.19.22-.46.32-.8.32s-.6-.11-.78-.3Z"/>
        <path class="cls-1" d="M672.55,235.72c-1.52-.86-2.7-2.08-3.52-3.65-.83-1.58-1.25-3.4-1.25-5.47s.41-3.92,1.25-5.5c.82-1.59,2-2.82,3.52-3.67,1.52-.86,3.27-1.29,5.26-1.29,1.67,0,3.2.28,4.6.84,1.4.56,2.5,1.34,3.3,2.34.15.18.23.39.23.64,0,.31-.14.56-.4.76-.18.12-.37.18-.58.18-.37,0-.68-.15-.93-.43-.62-.79-1.46-1.4-2.52-1.83-1.07-.42-2.3-.64-3.69-.64-1.6,0-2.99.35-4.17,1.05-1.18.7-2.09,1.69-2.72,2.98-.63,1.29-.94,2.82-.94,4.58s.31,3.26.94,4.54c.63,1.28,1.54,2.28,2.73,2.97,1.19.7,2.59,1.04,4.19,1.04,1.49,0,2.8-.22,3.9-.65,1.11-.43,1.99-1.04,2.63-1.81.28-.3.6-.46.92-.46.24,0,.42.07.58.2.27.24.41.49.41.76,0,.24-.09.46-.26.67-.79.97-1.92,1.74-3.37,2.31-1.46.57-3.06.86-4.81.86-2.01,0-3.77-.43-5.29-1.29Z"/>
        <path class="cls-1" d="M697.55,236.71c-.19-.21-.28-.49-.28-.86v-11.34c0-2.63.74-4.68,2.22-6.16,1.48-1.48,3.53-2.22,6.16-2.22s4.66.75,6.15,2.24c1.49,1.48,2.23,3.53,2.23,6.14v11.34c0,.37-.09.66-.28.86-.2.2-.46.3-.81.3-.32,0-.6-.11-.79-.3-.21-.21-.3-.49-.3-.86v-6.52h-12.39v6.52c0,.37-.09.66-.28.86-.2.2-.46.3-.81.3-.32,0-.59-.11-.78-.3ZM711.82,227.53v-3.1c0-2.07-.53-3.66-1.6-4.78-1.06-1.11-2.59-1.67-4.58-1.67s-3.55.55-4.61,1.66c-1.06,1.1-1.6,2.7-1.6,4.79v3.1h12.39Z"/>
        <path class="cls-1" d="M740.92,236.71c-.19-.21-.28-.49-.28-.86v-11.34c0-2.63.74-4.68,2.22-6.16,1.48-1.48,3.53-2.22,6.16-2.22s4.66.75,6.15,2.24c1.49,1.48,2.23,3.53,2.23,6.14v11.34c0,.37-.09.66-.28.86-.2.2-.46.3-.81.3-.32,0-.6-.11-.79-.3-.21-.21-.3-.49-.3-.86v-6.52h-12.39v6.52c0,.37-.09.66-.28.86-.2.2-.46.3-.81.3-.32,0-.59-.11-.78-.3ZM755.2,227.53v-3.1c0-2.07-.53-3.66-1.6-4.78-1.06-1.11-2.59-1.67-4.58-1.67s-3.55.55-4.61,1.66c-1.06,1.1-1.6,2.7-1.6,4.79v3.1h12.39Z"/>
        <path class="cls-1" d="M773.35,235.63c-.7-.91-1.35-2.4-1.97-4.45l-4.15-13.74c-.05-.22-.08-.38-.08-.52,0-.52.33-.78,1.01-.78.34,0,.61.07.78.22s.31.42.43.83l4.12,13.8c.46,1.54.89,2.63,1.29,3.26.39.63.85.94,1.37.94s.95-.31,1.36-.95c.4-.64.84-1.73,1.3-3.25l4.12-13.83c.12-.39.26-.66.43-.8.18-.15.43-.22.78-.22.68,0,1.01.26,1.01.78,0,.14-.03.3-.09.52l-4.17,13.74c-.66,2.15-1.34,3.66-2.05,4.53-.71.86-1.61,1.3-2.71,1.3-1.18,0-2.12-.46-2.82-1.38Z"/>
        <path class="cls-1" d="M795.18,236.71c-.19-.21-.28-.49-.28-.86v-11.34c0-2.63.74-4.68,2.22-6.16,1.48-1.48,3.53-2.22,6.16-2.22s4.66.75,6.15,2.24c1.49,1.48,2.23,3.53,2.23,6.14v11.34c0,.37-.09.66-.28.86-.2.2-.46.3-.81.3-.32,0-.6-.11-.79-.3-.21-.21-.3-.49-.3-.86v-6.52h-12.39v6.52c0,.37-.09.66-.28.86-.2.2-.46.3-.81.3-.32,0-.59-.11-.78-.3ZM809.45,227.53v-3.1c0-2.07-.53-3.66-1.6-4.78-1.06-1.11-2.59-1.67-4.58-1.67s-3.55.55-4.61,1.66c-1.06,1.1-1.6,2.7-1.6,4.79v3.1h12.39Z"/>
        <path class="cls-1" d="M823.52,236.71c-.19-.21-.28-.49-.28-.86v-11.83c0-1.6.34-3,1.03-4.19.69-1.19,1.67-2.1,2.94-2.74,1.28-.64,2.78-.96,4.49-.96s3.22.32,4.48.96c1.27.64,2.24,1.55,2.92,2.74.69,1.19,1.03,2.59,1.03,4.19v11.83c0,.37-.09.66-.27.86-.19.2-.45.3-.79.3s-.6-.11-.79-.3c-.21-.21-.3-.49-.3-.86v-11.92c0-1.87-.56-3.34-1.66-4.37-1.1-1.05-2.64-1.57-4.61-1.57s-3.46.54-4.6,1.6c-1.13,1.06-1.7,2.51-1.7,4.35v11.92c0,.37-.09.66-.28.86-.2.2-.46.3-.81.3-.32,0-.59-.11-.78-.3Z"/>
        <path class="cls-1" d="M869.07,233.18c0,.24-.09.46-.26.67-.74.91-1.76,1.64-3.07,2.2-1.31.55-2.77.86-4.36.94l-.03.08-.7,1.31c.79-.02,1.4.16,1.81.55.41.38.63.87.63,1.47,0,.72-.26,1.3-.76,1.76-.5.46-1.21.69-2.12.69-.64,0-1.23-.15-1.77-.42-.55-.28-.96-.63-1.25-1.03-.12-.14-.18-.28-.18-.43,0-.2.11-.39.31-.59.16-.11.3-.17.44-.17.21,0,.4.12.58.34.19.27.44.48.76.64.3.16.65.24,1.01.24.42,0,.75-.1.96-.29.21-.19.31-.45.31-.77,0-.7-.34-1.05-1.04-1.05-.16,0-.27,0-.35.03-.28.04-.53,0-.74-.16s-.3-.34-.3-.6c0-.12.03-.23.09-.34l.58-1.25c-1.83-.14-3.43-.66-4.8-1.56-1.36-.89-2.42-2.1-3.17-3.61-.74-1.5-1.11-3.25-1.11-5.22,0-2.09.41-3.92,1.25-5.5.82-1.59,2-2.82,3.52-3.67,1.52-.86,3.27-1.29,5.26-1.29,1.67,0,3.2.28,4.6.84,1.4.56,2.5,1.34,3.3,2.34.15.18.23.39.23.64,0,.31-.14.56-.4.76-.18.12-.37.18-.58.18-.37,0-.68-.15-.93-.43-.62-.79-1.46-1.4-2.52-1.83-1.07-.42-2.3-.64-3.69-.64-1.6,0-2.99.35-4.17,1.05s-2.09,1.69-2.72,2.98c-.63,1.29-.94,2.82-.94,4.58s.31,3.26.94,4.54c.63,1.28,1.54,2.28,2.73,2.97,1.19.7,2.59,1.04,4.19,1.04,1.49,0,2.8-.22,3.9-.65,1.11-.43,1.99-1.04,2.63-1.81.28-.3.6-.46.92-.46.24,0,.42.07.58.2.27.24.41.49.41.76Z"/>
        <path class="cls-1" d="M880.35,236.71c-.19-.21-.28-.49-.28-.86v-11.34c0-2.63.74-4.68,2.22-6.16,1.48-1.48,3.53-2.22,6.16-2.22s4.66.75,6.15,2.24c1.49,1.48,2.23,3.53,2.23,6.14v11.34c0,.37-.09.66-.28.86-.2.2-.46.3-.81.3-.32,0-.6-.11-.79-.3-.21-.21-.3-.49-.3-.86v-6.52h-12.39v6.52c0,.37-.09.66-.28.86-.2.2-.46.3-.81.3-.32,0-.59-.11-.78-.3ZM894.62,227.53v-3.1c0-2.07-.53-3.66-1.6-4.78-1.06-1.11-2.59-1.67-4.58-1.67s-3.55.55-4.61,1.66c-1.06,1.1-1.6,2.7-1.6,4.79v3.1h12.39Z"/>
        <path class="cls-1" d="M909.55,235.78c-.66-.63-.99-1.49-.99-2.6v-13.28c0-1.08.32-1.93.98-2.55.65-.62,1.55-.92,2.71-.92h4.06c2.01,0,3.77.42,5.26,1.26,1.5.84,2.66,2.03,3.47,3.55.8,1.53,1.22,3.32,1.22,5.37s-.41,3.84-1.22,5.36c-.81,1.51-1.97,2.69-3.47,3.52-1.49.83-3.25,1.25-5.26,1.25h-4c-1.18,0-2.1-.31-2.76-.94ZM916.01,234.92c2.55,0,4.53-.73,5.93-2.18,1.4-1.45,2.1-3.5,2.1-6.15s-.71-4.71-2.12-6.17c-1.41-1.47-3.38-2.21-5.91-2.21h-3.74c-.46,0-.83.16-1.12.46-.28.31-.42.72-.42,1.22v13.34c0,.51.14.91.42,1.22.28.31.66.47,1.12.47h3.74Z"/>
        <path class="cls-1" d="M937.58,236.71c-.19-.21-.28-.49-.28-.86v-11.34c0-2.63.74-4.68,2.22-6.16,1.48-1.48,3.53-2.22,6.16-2.22s4.66.75,6.15,2.24c1.49,1.48,2.23,3.53,2.23,6.14v11.34c0,.37-.09.66-.28.86-.2.2-.46.3-.81.3-.32,0-.6-.11-.79-.3-.21-.21-.3-.49-.3-.86v-6.52h-12.39v6.52c0,.37-.09.66-.28.86-.2.2-.46.3-.81.3-.32,0-.59-.11-.78-.3ZM951.85,227.53v-3.1c0-2.07-.53-3.66-1.6-4.78-1.06-1.11-2.59-1.67-4.58-1.67s-3.55.55-4.61,1.66c-1.06,1.1-1.6,2.7-1.6,4.79v3.1h12.39Z"/>
      </g>
    </g>
  </g>
</svg>