<?xml version="1.0" encoding="UTF-8"?>
<svg id="Camada_2" data-name="Camada 2" xmlns="http://www.w3.org/2000/svg" viewBox="0 0 1236 411">
  <defs>
    <style>
      .cls-1 {
        fill: #fff;
      }
    </style>
  </defs>
  <g id="Layer_1" data-name="Layer 1">
    <g>
      <path class="cls-1" d="M686.78,411h-10.78c-9.6-3.71-18.11-10.78-18.73-22-.52-9.49,5.84-17.62,13.03-21.21,8.82-4.4,18.2-3.39,25.46,2.38,6.3,5,9.85,11.35,9.31,19.33-.43,6.37-3.87,13.63-10.4,17.19l-7.89,4.31ZM700.91,388.02c0-10.85-8.8-19.65-19.65-19.65s-19.65,8.8-19.65,19.65,8.8,19.65,19.65,19.65,19.65-8.8,19.65-19.65Z"/>
      <path class="cls-1" d="M736.8,411h-11.65c-7.36-2.38-13.12-7.43-13.12-15.98v-28.86s5.56.09,5.56.09l.11,30.9c.01,3.33,1.9,7.99,4.12,9.44,2.91,1.9,6.67,2.56,9.99,2.51,23.24-.34,10.27-28.42,15.2-43.99,1.9,10.63.7,20.49.97,30.9.15,5.73-2.51,10.69-7.62,13.23l-3.56,1.77Z"/>
      <path class="cls-1" d="M574.25,406.01c-2.76,1.94-7.81,3.89-11.05,3.91l-17.2.1v-44.03c9.19.56,27.06-2.6,28.45,8.84.6,4.97-1.71,8.74-6.63,10.66,5.24,1.83,9.43,4.11,10.55,7.6,1.57,4.89.54,9.64-4.12,12.92ZM567.39,381.72c2.67-2.43,2.42-9.53-.47-11.31-4.61-2.83-10.22-2.61-15.35-2.06l.06,16.28c5.06.51,11.27,1.18,15.76-2.91ZM568.31,406.01c4.52-2.19,5.96-7.22,5.29-11s-4.45-7.49-8.95-7.64l-13.05-.44.09,21.03c6.08.17,11.52.52,16.62-1.95Z"/>
      <path class="cls-1" d="M786.05,409.63c-1.5-.1,1.33-11.87-7.87-14.9-4.92-1.62-10.64-1.53-16.14-1.07l-.1,15.9-5.23.26v-43.38c8.48-.8,17.48-1.27,25.25,2.49,5.33,2.57,8.05,8.04,7.34,12.93-.84,5.73-5.44,8.92-11.51,10.65,8.25,1.89,14.11,9.3,12.9,17.42l-4.63-.29ZM784.09,381.44c.17-4.22-1.23-8.95-5.53-10.99-5.16-2.44-11.13-2.81-16.61-2.04l.03,22.77c8.47.24,21.68.87,22.11-9.74Z"/>
      <path class="cls-1" d="M826.76,397.99l-13.58-4.32c-1.92-.61-4.94-.95-7.29-.92l-6.26,15.9c-.4,1-3.93,1.57-3.55.63l17.03-42.38c1.4-.95,4.56-1,6.37-.23l17.25,42.9c-.38.47-4.32.62-5.15-.32l-4.81-11.26ZM825.44,394.88l-10.31-24.87-8.11,19.65,18.42,5.22Z"/>
      <path class="cls-1" d="M591.51,388.88l-.11,19.13,22.54-.06,2.17,2-30.12.02.05-43.98,30.88.62c-8.92,3.19-16.77.26-25.57,1.76l-.08,18.19c6.5,1.25,12.41-.64,19.71,1.54-6.71,1.38-11.02.8-19.48.78Z"/>
      <path class="cls-1" d="M628.06,408c9.41.46,16.51-1.23,24.89,1.28-10.53,1.13-19.64.62-30.5.67l-.12-43c1.01-.86,3.68-.94,5.58-.51l.15,41.57Z"/>
      <g>
        <path class="cls-1" d="M502,0c20.32,3.9,38.36,11.7,54.86,24.26l-.02,17.34-8.48-8.97C516.56-.98,463.16.08,433.08,35.23c-16.57,19.36-25.41,44.79-23.68,70.45,2.85,42.24,30.09,80.48,74.48,84.5,31.61,2.86,53.44-11.08,72.84-33.78l.31,18.6c-18.04,12.05-37.81,22.8-60.02,23.89-40.66,2-78.1-19.72-97.44-55.14-15.98-29.26-15.06-63.65,2.01-92.17,17.43-29.12,46.54-46.64,79.42-51.58h21Z"/>
        <path class="cls-1" d="M1163,0c20.47,3.97,38.69,12.27,54.92,24.62l-.45,17.18c-12.6-15.35-27.69-27.05-46.73-31.47-32.5-7.55-64.41,5.23-83.1,32.42-26.42,38.44-23.45,90.62,8.78,124.94,18.2,19.39,48.05,26.94,73.87,20.65,19.22-4.68,34.24-16.55,47.05-32.18l.44,18.5c-16.46,11.59-36.79,22.33-56.9,24-41.61,3.46-80.62-18.27-100.63-54.75-13.14-23.95-15.27-52.33-5.16-77.84,14.69-37.06,48.41-60.71,86.91-66.07h21Z"/>
        <path class="cls-1" d="M954.71,194.48c-2.18,1.62-4.93,1.38-7.66.24l-128.84-158.69-.29,159.45h-6.9s-.02-191.24-.02-191.24c2.43-.29,5.33-.24,7.41.5l128.73,158.28.23-158.49c2.66-.36,4.71-.37,7.35-.02v189.98Z"/>
        <path class="cls-1" d="M319.17,195.24l-21.17.09V11.01s-77.33-.03-77.33-.03l-.24-6.97h176.7c.94,1.97.93,4.41.37,6.99h-78.34s.01,184.24.01,184.24Z"/>
        <path class="cls-1" d="M715.82,189.03c1.47,1.29,1.37,4.3.66,6.52l-126.31-.08-.13-191.4,21.1.1.21,184.81,104.48.05Z"/>
        <rect class="cls-1" x="994.48" y="3.99" width="21.28" height="191.79" transform="translate(-.15 1.49) rotate(-.08)"/>
        <rect class="cls-1" x="750" y="4" width="21.13" height="191.55"/>
        <g>
          <path class="cls-1" d="M109.84,96.01c.81,1.77.81,4.11.47,6.73l-83.09.06-.02,92.61-21.13.18-.1-191.58h126.66s.03,6.98.03,6.98l-105.65.02.2,84.97,82.62.03Z"/>
          <rect class="cls-1" x="166" y="4" width="21.02" height="191.77"/>
        </g>
      </g>
      <path class="cls-1" d="M1236,324.04v1.96l-7.39-.31-8.05-19.1c-13.82-1.35-17.03-6.35-30.55-7.67l-10.49,26.52c-1.05.17-3.18.23-4.66.17l26.29-65.21,8.52.08,24.52,61.03c.34.84,1.53,2.28,1.81,2.52ZM1202.26,298.25c5.83,2.37,10.85,4.13,17.03,5.01l-15.75-38.34-12.32,31.05,11.05,2.28Z"/>
      <path class="cls-1" d="M0,299v-12c5.27-17.62,20.62-30.12,39.88-27.69,6.52.82,12.39,4.32,18.01,7.78l-.11,6.9c-5.9-7.38-13.01-11.66-21.48-11.88s-16.14,3.13-21.29,9.84c-10.42,13.59-9.93,33.52,2.78,44.98,12.59,11.35,30.21,7.88,39.87-5.23l.17,7.07c-5.62,3.54-11.36,7.07-18,7.94-18.95,2.49-34.43-10.38-39.81-27.72Z"/>
      <path class="cls-1" d="M465.52,325.55c-2.32.29-4.87.31-7.45.13l-.25-58.04-27.83,57.99-25.91-48.11-.32,45.54-.16,2.29c-.04.54-1.16.44-2.68.4l.72-67.05,30.82,55.34,25.42-53.33c2.29-.41,5.06-.43,7.61-.23l.04,65.08Z"/>
      <path class="cls-1" d="M582.48,314.86c-13.17,13.58-31.22,10.91-49.39,11.14l-.02-65.76c17.17-.02,39.72-2.42,51.64,12.18,10,12.25,9.04,30.83-2.23,42.44ZM579.52,276.42c-8.62-13.25-23.61-14.12-38.9-13.47l.06,59.78c15.41,1.86,31.37-.73,39.39-15.7,5.31-9.91,5.43-21.4-.55-30.6Z"/>
      <path class="cls-1" d="M731.79,306.71c-14.02-1.58-17.51-6.48-30.7-7.77l-10.54,26.58c-1.25.25-3.95.21-4.52-.06l26.26-65.15h8.4s26.35,65.51,26.35,65.51l-7.22.15-8.03-19.27ZM720.49,301.05c3.42.93,6.24,1.56,9.85,2.08l-15.72-37.78-12.37,30.74c6.99,1.14,12.06,2.28,18.25,4.96Z"/>
      <path class="cls-1" d="M337.72,306.69c-14.6-1.5-16.79-6.43-30.78-7.77l-10.49,26.63-4.62.05,26.09-64.75c2.45-.8,5.83-.86,8.71-.31l26.21,65.1c-2.38.14-5.22.18-7.31.09l-7.81-19.04ZM325.91,300.8c3.54,1.13,6.62,1.87,10.27,2.29l-15.7-38.21-12.35,31.24c6.9,1.05,11.89,2.21,17.78,4.69Z"/>
      <path class="cls-1" d="M193.52,259.81c2.62-3.71,1.25,60.57.93,67.56l-45.44-54.73-.16,51.25c0,.47-.47,1.74-.64,2.1-.28.59-2.2-.89-2.19-2.1l.5-64.89,45.31,54.28.18-51.33,1.52-2.15Z"/>
      <path class="cls-1" d="M831.92,292.7c-9.92,3.17-18.93.43-29.15,1.65v28.55s33.62.16,33.62.16c.62,0,1.86.53,2.16.61.42.11-.59,2.29-1.3,2.29l-42.11.02-.08-65.77,40.81.02c1.26,0,2.46.98,2.79,1.28s-1.37,1.39-2.04,1.39l-33.84.07-.08,28.36c10,1,18.7-1.05,29.22,1.37Z"/>
      <path class="cls-1" d="M892.01,311.42c-.74,17.8-39.54,20.63-49.5,8.07,5.53-3.04,7.73.5,11.33,2.54,7.37,4.19,18.05,3.14,24.68-1.16,5.78-3.75,6.97-10.27,2.98-15.56-8.27-10.99-22.79-13.19-33.66-23.92-4.38-4.32-4.76-10.06-.75-14.35,9.82-10.51,30.21-11.05,39.34-.93-8.27,4.12-7.08-5.48-21.65-4.31-3.45.28-7.43,2.09-9.32,4.34-16.17,19.19,37.49,22.78,36.56,45.29Z"/>
      <path class="cls-1" d="M1003.02,293.82l-27.72.29-.25,28.82,35.85.12-.23,2.93-43.01.02.04-65.86,40.91.03c.68,0,2.04.36,2.39.47.54.16-.63,2.27-1.59,2.27l-34.2.09-.13,28.44,26.45.03c.67,0,2.2,2.35,1.48,2.36Z"/>
      <path class="cls-1" d="M513.32,293.98l-26.91.08-.3,28.92,35.08.04c.81,0,.73,2.95-.36,2.95l-42.12.06.07-65.89,40.95.04c.58,0,1.93.32,2.28.41.55.13-.73,2.32-1.71,2.33l-34.15.11-.09,28.35,26.66.23c.37,0,1.42.33,1.71.4s-.77,1.98-1.11,1.98Z"/>
      <path class="cls-1" d="M639.06,317.39c12.21,10.68,28.83,7.34,39-4.9.58,1.24.78,4.3.35,5.95-14.44,12.41-35.1,11.12-48.22-2.73-13.36-14.1-12.17-35.31,2.61-47.95,22.18-18.97,46.32-1.69,46.03.65l-.63,5.05c-6.29-7.34-13.27-11.34-21.78-11.34s-16.9,4.02-21.91,11.54c-9.15,13.72-8.4,32.39,4.55,43.72Z"/>
      <path class="cls-1" d="M1122.72,311.49c5.3,8.14,13.15,11.98,21.89,12.25s16.6-4.3,22.33-11.46c2.06,4.08.27,6.6-2.87,8.69-13.96,9.3-31.07,7.64-43.31-3.67-13.91-12.85-14.79-33.48-1.61-47.11,13.22-13.68,33.6-15.07,48.34-2.77v6.77c-9.73-13.15-26.89-16.47-39.21-5.8-12.29,10.63-14.6,29.22-5.57,43.09Z"/>
      <path class="cls-1" d="M246.08,318.32c12.47,9.67,28.41,5.83,37.83-5.88.28,1.17.62,3.62.61,4.99-.04,3.36-26.29,20.31-47.81-1.08-13.27-13.19-13.29-33.55-.06-46.66,13.32-13.21,33.31-14.43,47.81-2.22l.14,6.66c-6.47-7.88-14.51-12.55-23.93-11.98-9.28.56-17.48,5.8-22.22,14.6-7.35,13.66-5.28,31.55,7.65,41.57Z"/>
      <path class="cls-1" d="M929.94,325.51c-2.51.38-5.07.39-7.61.14l-.1-62.16c-8.78-2.77-17.98,2.69-27.3-2.68,21.35-.91,41.76-.99,63.15.07-9.55,5-18.7.24-28.14,2.38v62.25Z"/>
      <path class="cls-1" d="M1053.88,325.54c-2.59.33-5.05.36-7.86.17l.03-62.48c-9.4-2.14-18.49,2.85-27.33-2.58l59.3-.44c.37,0,1.72.17,1.91.42.3.37.42.95.4,1.43s-1.77.91-2.44.9h-23.96s-.04,62.58-.04,62.58Z"/>
      <path class="cls-1" d="M111.12,323.11c.86,0,.74,3.67.13,2.92l-42.38-.07-.03-65.48h7.28s.14,62.44.14,62.44l34.85.2Z"/>
      <rect class="cls-1" x="1091.05" y="260.19" width="8" height="65.84" transform="translate(-.44 1.64) rotate(-.09)"/>
      <rect class="cls-1" x="208" y="260.17" width="8" height="65.87"/>
      <rect class="cls-1" x="123.04" y="260.1" width="8" height="65.91" transform="translate(-.38 .17) rotate(-.08)"/>
      <rect class="cls-1" x="602.17" y="260.19" width="7.83" height="65.81"/>
      <path class="cls-1" d="M510.64,250.24c-3.53,3.84-5.41,6.44-9.24,8.53.21-2.68,1.31-5.79,2.83-8.01.97-1.41,5.34-.95,6.42-.52Z"/>
      <path class="cls-1" d="M127.02,256.83c-3.26,3.65-3.35-.54-3.42,1.13.02-.55.24-1.98.51-2.48l2.5-4.71c.67-1.26,4.41-.93,6.32-.55l-5.91,6.62Z"/>
      <path class="cls-1" d="M998.63,250.2c-2.42,4.02-3.94,7.34-8.83,8.17l3.19-7.52c.5-1.17,4.29-1.09,5.64-.64Z"/>
    </g>
  </g>
</svg>