<?xml version="1.0" encoding="UTF-8"?>
<svg id="Camada_2" data-name="Camada 2" xmlns="http://www.w3.org/2000/svg" viewBox="0 0 1440 247.35">
  <defs>
    <style>
      .cls-1, .cls-2 {
        fill: #fff;
      }

      .cls-2 {
        fill-rule: evenodd;
      }
    </style>
  </defs>
  <g id="Layer_1" data-name="Layer 1">
    <g id="Logo-Horizontal-Blue">
      <path class="cls-1" d="M11.16,73.06c7.26-4.25,14.39-7.22,21.39-8.9,7-1.68,14.66-2.52,22.98-2.52,13.46,0,24.13,3.28,32.02,9.83,7.88,6.56,11.82,16.65,11.82,30.29v55c0,7.8,3.1,11.69,9.3,11.69,2.48,0,4.87-.44,7.17-1.33l.27,13.82c-4.96,3.01-10.72,4.52-17.27,4.52-14.35,0-21.97-7.97-22.85-23.91v-.27c-3.54,6.2-8.63,11.78-15.28,16.74-6.64,4.96-14.75,7.44-24.31,7.44-8.15,0-16.25-2.48-24.31-7.44-8.06-4.96-12.09-13.64-12.09-26.04,0-14.88,5.89-24.66,17.67-29.36,11.78-4.69,24.4-7.04,37.86-7.04,8.14,0,14.96.36,20.46,1.06v-8.77c0-7.79-1.51-14.43-4.52-19.93-3.01-5.49-9.74-8.24-20.19-8.24-8.5,0-15.68,1.51-21.52,4.52l-4.52,19.39-18.86-2.13,4.78-28.43ZM75.99,137.09v-6.91c-3.19-.35-6.51-.66-9.96-.93-3.45-.27-6.95-.4-10.49-.4-8.15,0-15.41,1.33-21.79,3.99-6.38,2.66-9.56,8.15-9.56,16.47,0,6.38,1.99,10.98,5.98,13.82,3.98,2.83,8.54,4.25,13.68,4.25,7.61,0,14.7-2.66,21.25-7.97,6.55-5.31,10.18-12.75,10.89-22.32Z"/>
      <path class="cls-1" d="M196.25,62.17c8.32,0,15.41,2.13,21.25,6.38l4.78,33.21-18.33,2.13-4.52-20.46c-3.01-1.24-6.11-1.86-9.3-1.86-6.02,0-11.07,2.52-15.15,7.57-4.08,5.05-6.11,11.65-6.11,19.79v55.79h25.51v18.07h-68.02v-18.07h19.13v-82.36h-19.93v-18.33h41.71v21.79c2.3-6.73,5.89-12.35,10.76-16.87,4.87-4.52,10.93-6.78,18.2-6.78Z"/>
      <path class="cls-1" d="M622.94,182.79h-54.73v-18.07h12.22v-51.28c0-12.04-2.26-20.59-6.77-25.64-4.52-5.05-10.59-7.57-18.2-7.57-10.27,0-17.94,3.72-22.98,11.16-5.05,7.44-7.66,14.97-7.84,22.58v50.75h19.13v18.07h-54.73v-18.07h12.22v-51.28c0-12.22-2.26-20.81-6.77-25.77-4.52-4.96-10.5-7.44-17.94-7.44-10.1,0-17.71,3.63-22.85,10.89-5.14,7.26-7.8,14.7-7.97,22.32v51.28h22.05v18.07h-64.56v-18.07h19.13v-82.36h-19.39v-18.33h42.77v20.99c3.72-6.91,8.77-12.53,15.14-16.87,6.38-4.34,14.17-6.51,23.38-6.51s17,2.26,23.91,6.77c6.91,4.52,11.69,11.47,14.35,20.86,3.54-8.14,8.77-14.79,15.67-19.93,6.91-5.14,15.32-7.7,25.24-7.7,11.16,0,20.63,3.54,28.43,10.63,7.79,7.09,11.69,18.16,11.69,33.21v59.25h19.39v18.07Z"/>
      <path class="cls-1" d="M639.41,73.06c7.26-4.25,14.39-7.22,21.39-8.9,7-1.68,14.66-2.52,22.98-2.52,13.46,0,24.13,3.28,32.02,9.83,7.88,6.56,11.82,16.65,11.82,30.29v55c0,7.8,3.1,11.69,9.3,11.69,2.48,0,4.87-.44,7.17-1.33l.27,13.82c-4.96,3.01-10.72,4.52-17.27,4.52-14.35,0-21.97-7.97-22.85-23.91v-.27c-3.54,6.2-8.63,11.78-15.28,16.74-6.64,4.96-14.75,7.44-24.31,7.44-8.15,0-16.25-2.48-24.31-7.44-8.06-4.96-12.09-13.64-12.09-26.04,0-14.88,5.89-24.66,17.67-29.36,11.78-4.69,24.4-7.04,37.86-7.04,8.14,0,14.96.36,20.46,1.06v-8.77c0-7.79-1.51-14.43-4.52-19.93-3.01-5.49-9.74-8.24-20.19-8.24-8.5,0-15.68,1.51-21.52,4.52l-4.52,19.39-18.86-2.13,4.78-28.43ZM704.24,137.09v-6.91c-3.19-.35-6.51-.66-9.96-.93-3.45-.27-6.95-.4-10.49-.4-8.15,0-15.41,1.33-21.79,3.99-6.38,2.66-9.56,8.15-9.56,16.47,0,6.38,1.99,10.98,5.98,13.82,3.98,2.83,8.54,4.25,13.68,4.25,7.61,0,14.7-2.66,21.25-7.97,6.55-5.31,10.18-12.75,10.89-22.32Z"/>
      <g>
        <path class="cls-1" d="M914.39,120.62c0,10.45-1.77,20.64-5.31,30.55-3.55,9.92-9.21,18.11-17,24.58-7.8,6.47-17.89,9.7-30.29,9.7-19.84,0-33.65-7.44-41.45-22.32l-2.66,19.66h-18.6c.7-5.14,1.5-10.72,2.39-16.74.88-6.02,1.33-11.96,1.33-17.8V15.14h-20.46V0h39.06v89c3.54-7.26,8.64-13.55,15.28-18.86,6.64-5.31,15.63-7.97,26.97-7.97,14.7,0,26.83,5.05,36.4,15.15,9.57,10.1,14.35,24.53,14.35,43.31ZM894.73,122.48c0-14.7-3.45-25.77-10.36-33.21-6.91-7.44-15.32-11.16-25.24-11.16-11.34,0-20.37,4.16-27.1,12.49-6.74,8.33-10.27,16.83-10.63,25.5v17.8c0,9.92,3.5,18.33,10.5,25.24,6.99,6.91,15.63,10.36,25.9,10.36,12.93,0,22.32-4.78,28.16-14.35,5.85-9.56,8.77-20.46,8.77-32.68Z"/>
        <path class="cls-1" d="M1039.89,123.54c0,17.89-5.31,32.68-15.94,44.37-10.63,11.69-25.07,17.54-43.31,17.54s-31.93-5.67-42.11-17.01c-10.19-11.33-15.28-25.95-15.28-43.84s4.96-31.92,14.88-44.24c9.92-12.31,24.44-18.46,43.57-18.46s33.83,6.07,43.57,18.2c9.74,12.13,14.61,26.61,14.61,43.44ZM1020.23,123.28c0-13.46-3.41-24.4-10.23-32.81-6.82-8.41-16.43-12.62-28.83-12.62s-21.92,4.34-28.56,13.02c-6.64,8.68-9.96,19.57-9.96,32.68s3.28,23.82,9.83,32.68c6.55,8.86,16.12,13.28,28.69,13.28s22.23-4.38,28.96-13.15c6.73-8.77,10.1-19.79,10.1-33.08Z"/>
        <path class="cls-1" d="M1114.1,62.43c8.5,0,15.23,2.04,20.19,6.11l4.52,29.76-15.14,1.86-4.52-20.19c-3.01-1.06-6.02-1.59-9.03-1.59-6.91,0-12.67,2.88-17.27,8.64-4.61,5.76-6.91,13.24-6.91,22.45v58.19h27.36v15.14h-66.69v-15.14h20.72v-87.94h-21.25v-15.15h38.79v21.26c2.3-6.55,6.06-12.09,11.29-16.61,5.22-4.52,11.2-6.78,17.93-6.78Z"/>
        <path class="cls-1" d="M1250.31,148.78c-1.59,10.1-6.64,18.73-15.14,25.9-8.5,7.17-20.02,10.76-34.54,10.76-16.65,0-30.11-5.22-40.38-15.68-10.27-10.45-15.41-25.24-15.41-44.37s4.87-33.56,14.61-45.43c9.74-11.86,22.94-17.8,39.59-17.8s28.69,5.14,37.2,15.41c8.5,10.27,12.84,22.41,13.02,36.4,0,4.61-.53,9.3-1.59,14.08h-83.16c1.06,27.63,13.55,41.45,37.46,41.45,9.39,0,16.74-2.21,22.05-6.64,5.31-4.43,8.85-10.27,10.63-17.54l15.68,3.45ZM1229.58,114.24c.88-8.85-1.2-17.18-6.24-24.98-5.05-7.79-13.33-11.69-24.84-11.69s-19.04,3.63-24.18,10.89c-5.14,7.26-8.33,15.85-9.57,25.77h64.83Z"/>
        <path class="cls-1" d="M1270.05,73.59c6.2-4.07,12.75-6.99,19.66-8.77,6.91-1.77,14.26-2.66,22.05-2.66,28.16,0,42.24,13.2,42.24,39.59v56.32c0,8.5,3.36,12.75,10.1,12.75,3.01,0,5.67-.53,7.97-1.59l.27,12.22c-4.78,2.66-9.92,3.98-15.41,3.98-13.99,0-21.17-7.97-21.52-23.91v-.53c-3.72,6.38-8.99,12.05-15.81,17-6.82,4.96-15.01,7.44-24.58,7.44-7.8,0-15.72-2.39-23.78-7.17-8.06-4.78-12.09-13.46-12.09-26.04,0-14.88,5.89-24.66,17.67-29.36,11.78-4.69,24.31-7.04,37.59-7.04,3.54,0,7.13.09,10.76.27,3.63.18,7.04.45,10.23.8v-10.63c0-8.5-1.82-15.41-5.45-20.72-3.63-5.31-10.76-7.97-21.39-7.97-8.68,0-16.3,1.59-22.85,4.78l-4.52,20.46-15.41-1.86,4.25-27.37ZM1335.41,138.42v-9.03c-3.37-.18-6.91-.44-10.63-.8-3.72-.35-7.53-.53-11.42-.53-8.86,0-16.87,1.37-24.05,4.12-7.17,2.75-10.76,8.73-10.76,17.94,0,7.62,2.39,12.84,7.17,15.68,4.78,2.83,9.74,4.25,14.88,4.25,8.15,0,15.81-2.83,22.98-8.5,7.17-5.67,11.11-13.37,11.82-23.12Z"/>
        <path class="cls-1" d="M1440,182.79h-60.04v-15.14h20.72V15.14h-20.99V0h39.59v167.65h20.72v15.14Z"/>
      </g>
      <path class="cls-2" d="M394.98,115.75c-.58-5.41-1.72-10.67-3.38-15.71-1.65-5.04-3.81-9.88-6.43-14.45-14.37-25.12-42.37-42.21-74.5-42.21h0c-32.12,0-60.13,17.09-74.5,42.21-6.53,11.42-10.24,24.5-10.24,38.39,0,5.13.5,10.15,1.46,15.03,6.69,34.1,35.8,60.75,73.1,65v29.67h-15.42v13.68s51.22,0,51.22,0v-13.68h-15.42v-29.67c37.3-4.25,66.41-30.9,73.1-65,.96-4.87,1.46-9.89,1.46-15.03,0-2.78-.15-5.52-.44-8.23ZM320.87,183.44v-16.32s44.03-32.1,44.03-32.1l-7.13-9.77-.04.03-.02-.03-36.84,26.86v-19.76l29.04-21.37-7.17-9.75-.04.03-.02-.03-21.81,16.06v-16.45l14.24-10.2-7.03-9.82-.04.03-.02-.03-14.42,10.17-2.93,2.06-2.93-2.06-14.42-10.17-.02.03-.04-.03-7.03,9.82,14.24,10.2v16.45l-21.81-16.06-.02.03-.04-.03-7.17,9.75,29.04,21.37v19.76l-36.84-26.86-.02.03-.04-.03-7.13,9.77,44.02,32.1v16.32c-30.97-4.63-54.07-29.84-54.07-59.46,0-8.3,1.8-16.22,5.06-23.42,9.77-21.61,32.63-36.8,59.21-36.8,26.58,0,49.44,15.2,59.21,36.8,3.26,7.2,5.06,15.12,5.06,23.42,0,29.61-23.1,54.83-54.08,59.46Z"/>
    </g>
  </g>
</svg>