<?xml version="1.0" encoding="UTF-8"?>
<svg id="Camada_2" data-name="Camada 2" xmlns="http://www.w3.org/2000/svg" viewBox="0 0 1370.36 237.15">
  <defs>
    <style>
      .cls-1 {
        fill: #fff;
      }
    </style>
  </defs>
  <g id="Layer_1" data-name="Layer 1">
    <g>
      <g>
        <path class="cls-1" d="M341.98,236.09c-.34-.34-.51-.76-.51-1.26v-23.11c0-.52.17-.95.51-1.28s.76-.49,1.26-.49h15.43c.52,0,.94.15,1.26.46.32.31.48.71.48,1.21s-.16.86-.48,1.16c-.32.3-.74.44-1.26.44h-13.65v8.3h9.8c.5,0,.92.15,1.25.46.33.31.49.7.49,1.18s-.17.87-.49,1.18c-.33.31-.75.46-1.25.46h-9.8v8.53h13.65c.52,0,.94.15,1.26.44.32.3.48.68.48,1.16s-.16.91-.48,1.21c-.32.31-.74.46-1.26.46h-15.43c-.5,0-.92-.17-1.26-.51Z"/>
        <path class="cls-1" d="M396.26,233.67c.34.36.51.76.51,1.19,0,.46-.17.85-.51,1.19-.36.36-.76.55-1.19.55-.41,0-.82-.18-1.23-.55l-1.4-1.4c-2.28,1.52-4.92,2.29-7.92,2.29-2.64,0-4.99-.58-7.05-1.74-2.06-1.16-3.66-2.78-4.8-4.86-1.14-2.08-1.71-4.44-1.71-7.08s.57-4.99,1.71-7.07c1.14-2.07,2.74-3.69,4.8-4.85,2.06-1.16,4.41-1.74,7.05-1.74s4.95.58,7.01,1.74c2.06,1.16,3.66,2.78,4.81,4.85,1.15,2.07,1.72,4.43,1.72,7.07,0,1.8-.27,3.47-.8,5.02-.54,1.55-1.3,2.91-2.3,4.1l1.3,1.3ZM389.98,232.2l-3.28-3.28c-.36-.41-.55-.82-.55-1.23,0-.43.18-.83.55-1.19.36-.36.77-.55,1.23-.55s.85.18,1.19.55l3.38,3.41c1.43-1.89,2.15-4.11,2.15-6.66,0-1.96-.43-3.73-1.3-5.32-.86-1.59-2.07-2.84-3.6-3.75-1.54-.91-3.28-1.37-5.24-1.37s-3.7.46-5.24,1.37c-1.54.91-2.74,2.16-3.6,3.75-.86,1.59-1.3,3.37-1.3,5.32s.43,3.73,1.3,5.32c.86,1.59,2.07,2.85,3.62,3.77,1.55.92,3.29,1.38,5.22,1.38,2.05,0,3.87-.51,5.46-1.54Z"/>
        <path class="cls-1" d="M415.83,235.94c-1.7-.81-3.02-1.93-3.96-3.36-.94-1.43-1.42-3.07-1.42-4.92v-15.94c0-.52.17-.95.51-1.28s.76-.49,1.26-.49.95.16,1.28.49c.33.33.49.76.49,1.28v15.94c0,1.21.32,2.29.97,3.24.65.96,1.55,1.7,2.7,2.24,1.15.54,2.46.8,3.94.8s2.67-.27,3.79-.8c1.11-.53,1.99-1.28,2.61-2.24.63-.96.94-2.04.94-3.24v-15.94c0-.52.17-.95.51-1.28.34-.33.76-.49,1.26-.49s.92.16,1.25.49c.33.33.49.76.49,1.28v15.94c0,1.82-.46,3.45-1.38,4.9-.92,1.44-2.21,2.57-3.86,3.38-1.65.81-3.52,1.21-5.62,1.21s-4.09-.4-5.79-1.21Z"/>
        <path class="cls-1" d="M446.64,236.09c-.34-.34-.51-.76-.51-1.26v-23.11c0-.52.17-.95.51-1.28.34-.33.76-.49,1.26-.49s.95.16,1.28.49c.33.33.49.76.49,1.28v23.11c0,.5-.17.92-.49,1.26-.33.34-.76.51-1.28.51s-.92-.17-1.26-.51Z"/>
        <path class="cls-1" d="M463.84,236.09c-.34-.34-.51-.76-.51-1.26v-23.11c0-.52.17-.95.51-1.28.34-.33.76-.49,1.26-.49h6.83c1.68,0,3.19.37,4.52,1.13,1.33.75,2.37,1.8,3.11,3.14.74,1.34,1.11,2.87,1.11,4.57s-.37,3.14-1.11,4.44c-.74,1.3-1.77,2.31-3.11,3.04-1.33.73-2.84,1.09-4.52,1.09h-5.05v7.48c0,.5-.17.92-.49,1.26-.33.34-.76.51-1.28.51s-.92-.17-1.26-.51ZM471.93,224.08c1.55,0,2.82-.49,3.82-1.48,1-.99,1.5-2.26,1.5-3.81s-.5-2.95-1.5-3.99c-1-1.05-2.28-1.57-3.82-1.57h-5.05v10.86h5.05Z"/>
        <path class="cls-1" d="M510.5,234.86c0,.48-.17.89-.51,1.23-.34.34-.76.51-1.26.51-.34,0-.67-.1-.97-.29-.31-.19-.53-.46-.67-.8l-1.91-4.78h-12.25l-1.95,4.78c-.16.34-.39.61-.68.8-.3.19-.61.29-.96.29-.5,0-.92-.18-1.25-.53-.33-.35-.49-.77-.49-1.25,0-.23.06-.49.17-.79l9.59-22.91c.34-.8.9-1.19,1.67-1.19.82,0,1.38.4,1.67,1.19l9.63,22.97c.11.3.17.55.17.75ZM494.12,227.8h9.87l-4.88-12.15-4.98,12.15Z"/>
        <path class="cls-1" d="M547.4,210.46c.34.34.51.76.51,1.26v23.11c0,.5-.18.92-.53,1.26-.35.34-.77.51-1.25.51s-.92-.17-1.26-.51c-.34-.34-.51-.76-.51-1.26v-16.97l-8.26,16.83c-.39.59-.9.89-1.54.89-.75,0-1.3-.35-1.64-1.06l-8.16-16.35v16.66c0,.5-.17.92-.51,1.26-.34.34-.76.51-1.26.51s-.92-.17-1.26-.51c-.34-.34-.51-.76-.51-1.26v-23.11c0-.5.17-.92.51-1.26.34-.34.76-.51,1.26-.51.68,0,1.21.32,1.57.96l10.14,20.31,9.86-20.31c.36-.64.89-.96,1.57-.96.5,0,.92.17,1.26.51Z"/>
        <path class="cls-1" d="M562.08,236.09c-.34-.34-.51-.76-.51-1.26v-23.11c0-.52.17-.95.51-1.28s.76-.49,1.26-.49h15.43c.52,0,.94.15,1.26.46.32.31.48.71.48,1.21s-.16.86-.48,1.16c-.32.3-.74.44-1.26.44h-13.65v8.3h9.8c.5,0,.92.15,1.25.46.33.31.49.7.49,1.18s-.17.87-.49,1.18c-.33.31-.75.46-1.25.46h-9.8v8.53h13.65c.52,0,.94.15,1.26.44.32.3.48.68.48,1.16s-.16.91-.48,1.21c-.32.31-.74.46-1.26.46h-15.43c-.5,0-.92-.17-1.26-.51Z"/>
        <path class="cls-1" d="M592.78,236.11c-.33-.33-.49-.76-.49-1.28v-23.11c0-.52.16-.95.49-1.28.33-.33.75-.49,1.25-.49.25,0,.5.06.75.19.25.13.45.28.61.46l14.88,19.8v-18.67c0-.52.17-.95.51-1.28.34-.33.76-.49,1.26-.49s.92.16,1.25.49c.33.33.5.76.5,1.28v23.11c0,.52-.17.95-.5,1.28-.33.33-.75.49-1.25.49-.25,0-.51-.05-.77-.15-.26-.1-.46-.26-.6-.46l-14.88-19.8v18.64c0,.5-.17.92-.49,1.26-.33.34-.76.51-1.28.51s-.92-.16-1.25-.49Z"/>
        <path class="cls-1" d="M645.62,210.41c.31.31.46.7.46,1.18s-.15.87-.46,1.18c-.31.31-.7.46-1.18.46h-7.34v21.61c0,.5-.17.92-.51,1.26s-.76.51-1.26.51-.92-.17-1.26-.51c-.34-.34-.51-.76-.51-1.26v-21.61h-7.37c-.48,0-.87-.15-1.18-.46-.31-.31-.46-.7-.46-1.18s.15-.87.46-1.18c.31-.31.7-.46,1.18-.46h18.26c.48,0,.87.15,1.18.46Z"/>
        <path class="cls-1" d="M660.4,235.21c-2.06-1.16-3.66-2.78-4.8-4.86-1.14-2.08-1.71-4.44-1.71-7.08s.57-4.99,1.71-7.07c1.14-2.07,2.74-3.69,4.8-4.85,2.06-1.16,4.41-1.74,7.05-1.74s4.95.58,7.01,1.74c2.06,1.16,3.66,2.78,4.81,4.85,1.15,2.07,1.72,4.43,1.72,7.07s-.57,5-1.72,7.08c-1.15,2.08-2.75,3.7-4.8,4.86-2.05,1.16-4.39,1.74-7.03,1.74s-4.99-.58-7.05-1.74ZM672.68,232.36c1.55-.92,2.75-2.18,3.62-3.77.86-1.59,1.3-3.37,1.3-5.32s-.43-3.73-1.3-5.32c-.86-1.59-2.07-2.84-3.6-3.75-1.54-.91-3.28-1.37-5.24-1.37s-3.7.46-5.24,1.37c-1.54.91-2.74,2.16-3.6,3.75-.86,1.59-1.3,3.37-1.3,5.32s.43,3.73,1.3,5.32c.86,1.59,2.07,2.85,3.62,3.77,1.55.92,3.29,1.38,5.22,1.38s3.68-.46,5.22-1.38Z"/>
        <path class="cls-1" d="M695.84,235.44c-1.81-1-3.05-2.31-3.74-3.93-.11-.27-.17-.5-.17-.68,0-.34.12-.64.38-.9.25-.26.59-.44,1.02-.53.07-.02.18-.03.34-.03.36,0,.71.11,1.04.32.33.22.57.51.73.87.41.89,1.22,1.64,2.42,2.25,1.21.61,2.54.92,3.99.92,1.71,0,3.15-.39,4.34-1.18,1.18-.79,1.78-1.86,1.78-3.23s-.5-2.41-1.5-3.33c-1-.92-2.53-1.48-4.57-1.69-2.82-.27-5.04-1.1-6.66-2.47-1.62-1.38-2.42-3.1-2.42-5.17,0-1.46.41-2.71,1.25-3.77.83-1.06,1.97-1.87,3.41-2.42,1.44-.56,3.07-.84,4.86-.84,1.96,0,3.61.4,4.95,1.19,1.34.8,2.48,1.93,3.41,3.41.27.43.41.84.41,1.23,0,.5-.23.91-.68,1.23-.25.16-.55.24-.89.24s-.66-.08-.96-.26c-.3-.17-.52-.4-.68-.7-.61-1.02-1.38-1.8-2.3-2.34-.92-.53-2.09-.8-3.5-.8-1.73,0-3.13.34-4.2,1.01-1.07.67-1.6,1.64-1.6,2.92,0,1.18.48,2.17,1.43,2.97.96.8,2.66,1.32,5.12,1.57,2.73.27,4.85,1.1,6.35,2.47,1.5,1.38,2.25,3.19,2.25,5.44,0,1.64-.44,3.04-1.33,4.22s-2.07,2.05-3.53,2.63c-1.47.58-3.04.87-4.73.87-2.21,0-4.22-.5-6.02-1.5Z"/>
        <path class="cls-1" d="M741.05,236.09c-.34-.34-.51-.76-.51-1.26v-23.11c0-.52.17-.95.51-1.28s.76-.49,1.26-.49h6.18c2.57,0,4.86.57,6.86,1.71,2,1.14,3.56,2.71,4.68,4.73,1.11,2.01,1.67,4.31,1.67,6.88s-.56,4.87-1.67,6.9c-1.12,2.03-2.67,3.61-4.68,4.75-2,1.14-4.29,1.71-6.86,1.71h-6.18c-.5,0-.92-.17-1.26-.51ZM748.49,233.46c1.89,0,3.58-.43,5.07-1.3,1.49-.87,2.65-2.08,3.48-3.64.83-1.56,1.25-3.32,1.25-5.27s-.42-3.71-1.25-5.26c-.83-1.55-1.99-2.75-3.48-3.62-1.49-.87-3.18-1.3-5.07-1.3h-4.4v20.38h4.4Z"/>
        <path class="cls-1" d="M774.6,236.09c-.34-.34-.51-.76-.51-1.26v-23.11c0-.52.17-.95.51-1.28s.76-.49,1.26-.49h15.43c.52,0,.94.15,1.26.46.32.31.48.71.48,1.21s-.16.86-.48,1.16c-.32.3-.74.44-1.26.44h-13.65v8.3h9.8c.5,0,.92.15,1.25.46.33.31.49.7.49,1.18s-.17.87-.49,1.18c-.33.31-.75.46-1.25.46h-9.8v8.53h13.65c.52,0,.94.15,1.26.44.32.3.48.68.48,1.16s-.16.91-.48,1.21c-.32.31-.74.46-1.26.46h-15.43c-.5,0-.92-.17-1.26-.51Z"/>
        <path class="cls-1" d="M822.15,236.09c-.34-.34-.51-.76-.51-1.26v-23.11c0-.52.17-.95.51-1.28s.76-.49,1.26-.49h15.43c.52,0,.94.15,1.26.46.32.31.48.71.48,1.21s-.16.86-.48,1.16c-.32.3-.74.44-1.26.44h-13.65v8.3h9.8c.5,0,.92.15,1.25.46.33.31.49.7.49,1.18s-.17.87-.49,1.18c-.33.31-.75.46-1.25.46h-9.8v8.53h13.65c.52,0,.94.15,1.26.44.32.3.48.68.48,1.16s-.16.91-.48,1.21c-.32.31-.74.46-1.26.46h-15.43c-.5,0-.92-.17-1.26-.51Z"/>
        <path class="cls-1" d="M854.8,235.44c-1.81-1-3.05-2.31-3.74-3.93-.11-.27-.17-.5-.17-.68,0-.34.12-.64.38-.9.25-.26.59-.44,1.02-.53.07-.02.18-.03.34-.03.36,0,.71.11,1.04.32.33.22.57.51.73.87.41.89,1.22,1.64,2.42,2.25,1.21.61,2.54.92,3.99.92,1.71,0,3.15-.39,4.34-1.18,1.18-.79,1.78-1.86,1.78-3.23s-.5-2.41-1.5-3.33c-1-.92-2.53-1.48-4.57-1.69-2.82-.27-5.04-1.1-6.66-2.47-1.62-1.38-2.42-3.1-2.42-5.17,0-1.46.41-2.71,1.25-3.77.83-1.06,1.97-1.87,3.41-2.42,1.44-.56,3.07-.84,4.86-.84,1.96,0,3.61.4,4.95,1.19,1.34.8,2.48,1.93,3.41,3.41.27.43.41.84.41,1.23,0,.5-.23.91-.68,1.23-.25.16-.55.24-.89.24s-.66-.08-.96-.26c-.3-.17-.52-.4-.68-.7-.61-1.02-1.38-1.8-2.3-2.34-.92-.53-2.09-.8-3.5-.8-1.73,0-3.13.34-4.2,1.01-1.07.67-1.6,1.64-1.6,2.92,0,1.18.48,2.17,1.43,2.97.96.8,2.66,1.32,5.12,1.57,2.73.27,4.85,1.1,6.35,2.47,1.5,1.38,2.25,3.19,2.25,5.44,0,1.64-.44,3.04-1.33,4.22s-2.07,2.05-3.53,2.63c-1.47.58-3.04.87-4.73.87-2.21,0-4.22-.5-6.02-1.5Z"/>
        <path class="cls-1" d="M899.48,210.41c.31.31.46.7.46,1.18s-.15.87-.46,1.18c-.31.31-.7.46-1.18.46h-7.34v21.61c0,.5-.17.92-.51,1.26s-.76.51-1.26.51-.92-.17-1.26-.51c-.34-.34-.51-.76-.51-1.26v-21.61h-7.37c-.48,0-.87-.15-1.18-.46-.31-.31-.46-.7-.46-1.18s.15-.87.46-1.18c.31-.31.7-.46,1.18-.46h18.26c.48,0,.87.15,1.18.46Z"/>
        <path class="cls-1" d="M911.21,236.09c-.34-.34-.51-.76-.51-1.26v-23.11c0-.52.17-.95.51-1.28s.76-.49,1.26-.49h15.43c.52,0,.94.15,1.26.46.32.31.48.71.48,1.21s-.16.86-.48,1.16c-.32.3-.74.44-1.26.44h-13.65v8.3h9.8c.5,0,.92.15,1.25.46.33.31.49.7.49,1.18s-.17.87-.49,1.18c-.33.31-.75.46-1.25.46h-9.8v8.53h13.65c.52,0,.94.15,1.26.44.32.3.48.68.48,1.16s-.16.91-.48,1.21c-.32.31-.74.46-1.26.46h-15.43c-.5,0-.92-.17-1.26-.51ZM919.47,206.51c-.32-.33-.48-.74-.48-1.25s.14-.87.41-1.16l3.35-3.35c.34-.34.75-.51,1.23-.51s.92.17,1.25.51c.33.34.49.76.49,1.26s-.16.9-.48,1.19l-3.31,3.31c-.32.32-.72.48-1.19.48-.52,0-.94-.16-1.26-.5Z"/>
        <path class="cls-1" d="M959.59,210.41c.31.31.46.7.46,1.18s-.15.87-.46,1.18c-.31.31-.7.46-1.18.46h-7.34v21.61c0,.5-.17.92-.51,1.26s-.76.51-1.26.51-.92-.17-1.26-.51c-.34-.34-.51-.76-.51-1.26v-21.61h-7.37c-.48,0-.87-.15-1.18-.46-.31-.31-.46-.7-.46-1.18s.15-.87.46-1.18c.31-.31.7-.46,1.18-.46h18.26c.48,0,.87.15,1.18.46Z"/>
        <path class="cls-1" d="M971.32,236.09c-.34-.34-.51-.76-.51-1.26v-23.11c0-.52.17-.95.51-1.28s.76-.49,1.26-.49.95.16,1.28.49c.33.33.49.76.49,1.28v23.11c0,.5-.17.92-.49,1.26-.33.34-.76.51-1.28.51s-.92-.17-1.26-.51Z"/>
        <path class="cls-1" d="M993.28,235.14c-2.01-1.21-3.6-2.86-4.76-4.95-1.16-2.09-1.74-4.4-1.74-6.93s.58-4.8,1.74-6.88c1.16-2.08,2.75-3.73,4.76-4.95,2.01-1.22,4.24-1.83,6.67-1.83,1.73,0,3.23.23,4.49.68,1.26.45,2.54,1.21,3.84,2.25.27.2.45.42.55.63.09.22.14.47.14.77,0,.46-.17.83-.49,1.13-.33.3-.71.44-1.14.44s-.83-.15-1.19-.44c-.93-.8-1.84-1.37-2.73-1.72-.89-.35-2.04-.53-3.45-.53-1.78,0-3.41.47-4.9,1.4-1.49.93-2.67,2.2-3.55,3.81-.88,1.6-1.31,3.35-1.31,5.24s.44,3.66,1.31,5.26c.88,1.59,2.06,2.86,3.55,3.79,1.49.93,3.12,1.4,4.9,1.4,2.18,0,4.28-.75,6.28-2.25.39-.27.76-.41,1.13-.41.43,0,.79.15,1.08.46.28.31.43.71.43,1.21s-.18.9-.55,1.26c-2.46,1.98-5.25,2.97-8.36,2.97-2.44,0-4.66-.6-6.67-1.81Z"/>
        <path class="cls-1" d="M1041.46,234.86c0,.48-.17.89-.51,1.23-.34.34-.76.51-1.26.51-.34,0-.67-.1-.97-.29-.31-.19-.53-.46-.67-.8l-1.91-4.78h-12.25l-1.95,4.78c-.16.34-.39.61-.68.8-.3.19-.61.29-.96.29-.5,0-.92-.18-1.25-.53-.33-.35-.49-.77-.49-1.25,0-.23.06-.49.17-.79l9.59-22.91c.34-.8.9-1.19,1.67-1.19.82,0,1.38.4,1.67,1.19l9.63,22.97c.11.3.17.55.17.75ZM1025.08,227.8h9.87l-4.88-12.15-4.98,12.15Z"/>
      </g>
      <g>
        <path class="cls-1" d="M247.47,176.68c-38.68-.34-69.87-32.08-69.53-70.76.34-38.68,32.08-69.87,70.76-69.53,38.68.34,69.87,32.08,69.53,70.76-.34,38.68-32.08,69.87-70.76,69.53ZM248.38,72.26c-18.9-.16-34.4,15.07-34.57,33.97-.16,18.9,15.07,34.4,33.97,34.57,18.9.16,34.4-15.07,34.57-33.97.16-18.9-15.07-34.4-33.97-34.57Z"/>
        <path class="cls-1" d="M148.74,59.46c7.41,7.9,11.12,18.92,11.12,33.05v59.45c0,3.05-.97,5.58-2.91,7.59-1.94,2.01-4.5,3.01-7.69,3.01s-5.58-1-7.59-3.01c-2.01-2.01-3.01-4.54-3.01-7.59v-59.45c0-8.45-2.11-14.86-6.34-19.23-4.23-4.37-9.87-6.55-16.94-6.55s-13.13,2.49-17.77,7.48c-4.64,4.99-6.96,11.36-6.96,19.13v58.62c0,3.05-.97,5.58-2.91,7.59-1.94,2.01-4.51,3.01-7.69,3.01s-5.58-1-7.59-3.01c-2.01-2.01-3.02-4.54-3.02-7.59v-59.45c0-8.45-2.11-14.86-6.34-19.23-4.23-4.37-9.87-6.55-16.94-6.55s-13.34,2.49-17.98,7.48c-4.65,4.99-6.96,11.36-6.96,19.13v58.62c0,3.05-.97,5.58-2.91,7.59-1.94,2.01-4.5,3.01-7.69,3.01s-5.58-1-7.59-3.01c-2.01-2.01-3.01-4.54-3.01-7.59V59.46c0-3.19,1-5.75,3.01-7.69,2.01-1.94,4.54-2.91,7.59-2.91s5.54.94,7.48,2.81c1.94,1.87,2.98,4.33,3.12,7.38,3.6-3.6,7.9-6.41,12.89-8.42,4.99-2.01,10.39-3.01,16.21-3.01,7.07,0,13.41,1.42,19.02,4.26,5.61,2.84,10.22,6.9,13.82,12.16,4.16-5.13,9.35-9.15,15.59-12.06,6.24-2.91,13.16-4.37,20.79-4.37,12.06,0,21.79,3.95,29.21,11.85Z"/>
        <path class="cls-1" d="M484.89,59.46c7.41,7.9,11.12,18.92,11.12,33.05v59.45c0,3.05-.97,5.58-2.91,7.59-1.94,2.01-4.5,3.01-7.69,3.01s-5.58-1-7.59-3.01c-2.01-2.01-3.01-4.54-3.01-7.59v-59.45c0-8.45-2.11-14.86-6.34-19.23-4.23-4.37-9.87-6.55-16.94-6.55s-13.13,2.49-17.77,7.48c-4.64,4.99-6.96,11.36-6.96,19.13v58.62c0,3.05-.97,5.58-2.91,7.59-1.94,2.01-4.51,3.01-7.69,3.01s-5.58-1-7.59-3.01c-2.01-2.01-3.02-4.54-3.02-7.59v-59.45c0-8.45-2.11-14.86-6.34-19.23-4.23-4.37-9.87-6.55-16.94-6.55s-13.34,2.49-17.98,7.48c-4.65,4.99-6.96,11.36-6.96,19.13v58.62c0,3.05-.97,5.58-2.91,7.59-1.94,2.01-4.5,3.01-7.69,3.01s-5.58-1-7.59-3.01c-2.01-2.01-3.01-4.54-3.01-7.59V59.46c0-3.19,1-5.75,3.01-7.69,2.01-1.94,4.54-2.91,7.59-2.91s5.54.94,7.48,2.81c1.94,1.87,2.98,4.33,3.12,7.38,3.6-3.6,7.9-6.41,12.89-8.42,4.99-2.01,10.39-3.01,16.21-3.01,7.07,0,13.41,1.42,19.02,4.26,5.61,2.84,10.22,6.9,13.82,12.16,4.16-5.13,9.35-9.15,15.59-12.06,6.24-2.91,13.16-4.37,20.79-4.37,12.06,0,21.79,3.95,29.21,11.85Z"/>
        <path class="cls-1" d="M620.12,110.28c-1.8,1.73-4.09,2.6-6.86,2.6h-79c1.52,9.7,5.92,17.53,13.2,23.49,7.27,5.96,16.18,8.94,26.71,8.94,4.16,0,8.49-.76,12.99-2.29,4.5-1.52,8.21-3.39,11.12-5.61,1.94-1.52,4.23-2.29,6.86-2.29s4.71.7,6.24,2.08c2.49,2.08,3.74,4.44,3.74,7.07,0,2.49-1.11,4.57-3.32,6.24-4.71,3.74-10.57,6.79-17.57,9.15-7,2.36-13.69,3.53-20.06,3.53-11.36,0-21.55-2.46-30.56-7.38-9.01-4.92-16.04-11.75-21.1-20.48-5.06-8.73-7.59-18.64-7.59-29.73s2.39-21.03,7.17-29.83c4.78-8.8,11.43-15.66,19.96-20.58,8.52-4.92,18.19-7.38,29-7.38s19.89,2.36,27.65,7.07c7.76,4.71,13.72,11.3,17.88,19.75,4.16,8.45,6.24,18.16,6.24,29.1,0,2.63-.9,4.82-2.7,6.55ZM546.42,74.01c-6.31,5.54-10.29,12.96-11.95,22.24h69.22c-1.25-9.28-4.71-16.7-10.39-22.24-5.69-5.54-13.1-8.32-22.25-8.32-10.12,0-18.33,2.77-24.63,8.32Z"/>
        <path class="cls-1" d="M721.77,53.84c7.62,4.16,13.58,10.22,17.88,18.19,4.29,7.97,6.44,17.57,6.44,28.79v51.14c0,3.05-1.01,5.58-3.01,7.59-2.01,2.01-4.54,3.01-7.59,3.01s-5.58-1-7.59-3.01c-2.01-2.01-3.02-4.54-3.02-7.59v-51.14c0-11.23-3.01-19.71-9.04-25.47-6.03-5.75-14.03-8.63-24.01-8.63-5.82,0-11.12,1.18-15.9,3.53-4.78,2.36-8.52,5.54-11.23,9.56-2.7,4.02-4.05,8.52-4.05,13.51v58.62c0,3.05-.97,5.58-2.91,7.59-1.94,2.01-4.51,3.01-7.69,3.01s-5.58-1-7.59-3.01c-2.01-2.01-3.01-4.54-3.01-7.59V59.25c0-3.19,1-5.75,3.01-7.69,2.01-1.94,4.54-2.91,7.59-2.91s5.75.97,7.69,2.91c1.94,1.94,2.91,4.5,2.91,7.69v2.29c4.43-4.43,9.7-7.86,15.8-10.29,6.1-2.42,12.61-3.64,19.54-3.64,9.56,0,18.16,2.08,25.78,6.24Z"/>
        <path class="cls-1" d="M825.61,144.48c1.73,1.94,2.6,4.44,2.6,7.48s-1.14,5.54-3.43,7.48c-2.29,1.94-5.23,2.91-8.84,2.91h-3.74c-6.79,0-12.99-1.77-18.61-5.3-5.61-3.53-10.01-8.35-13.2-14.45-3.19-6.1-4.78-12.96-4.78-20.58v-51.35h-9.56c-2.91,0-5.27-.83-7.07-2.49-1.8-1.66-2.7-3.74-2.7-6.24,0-2.77.9-4.99,2.7-6.65,1.8-1.66,4.16-2.49,7.07-2.49h9.56v-29.94c0-3.05.97-5.54,2.91-7.48,1.94-1.94,4.44-2.91,7.48-2.91s5.54.97,7.48,2.91c1.94,1.94,2.91,4.44,2.91,7.48v29.94h17.67c2.91,0,5.27.83,7.07,2.49,1.8,1.66,2.7,3.88,2.7,6.65,0,2.49-.9,4.57-2.7,6.24-1.8,1.66-4.16,2.49-7.07,2.49h-17.67v51.35c0,5.54,1.52,10.19,4.57,13.93,3.05,3.74,6.79,5.61,11.23,5.61h7.07c2.49,0,4.61.97,6.34,2.91Z"/>
        <path class="cls-1" d="M905.22,157.47c-4.78-3.25-8.49-7.83-11.12-13.72-2.63-5.89-3.95-12.51-3.95-19.85V10.39c0-3.05.97-5.54,2.91-7.48,1.94-1.94,4.43-2.91,7.48-2.91s5.54.97,7.48,2.91c1.94,1.94,2.91,4.44,2.91,7.48v113.51c0,5.13.97,9.35,2.91,12.68,1.94,3.33,4.44,4.99,7.48,4.99h5.2c2.77,0,5.02.97,6.76,2.91,1.73,1.94,2.6,4.44,2.6,7.48s-1.32,5.54-3.95,7.48c-2.63,1.94-6.03,2.91-10.19,2.91h-.42c-5.96,0-11.33-1.63-16.11-4.89Z"/>
        <path class="cls-1" d="M1020.6,55.4c8.66,5.06,15.52,11.99,20.58,20.79,5.06,8.8,7.59,18.61,7.59,29.42v46.36c0,3.05-1.01,5.58-3.02,7.59-2.01,2.01-4.54,3.01-7.59,3.01s-5.58-1-7.59-3.01c-2.01-2.01-3.01-4.54-3.01-7.59v-7.69c-4.85,5.96-10.74,10.6-17.67,13.93-6.93,3.33-14.42,4.99-22.45,4.99-9.98,0-19.02-2.49-27.13-7.48-8.11-4.99-14.48-11.88-19.13-20.68-4.64-8.8-6.96-18.61-6.96-29.42s2.49-20.61,7.48-29.42c4.99-8.8,11.88-15.73,20.69-20.79,8.8-5.06,18.53-7.59,29.21-7.59s20.34,2.53,29,7.59ZM1010.41,139.39c5.61-3.4,10.01-8.04,13.2-13.93,3.19-5.89,4.78-12.51,4.78-19.85s-1.6-14-4.78-19.96c-3.19-5.96-7.59-10.63-13.2-14.03-5.61-3.39-11.89-5.09-18.81-5.09s-13.2,1.7-18.81,5.09c-5.61,3.4-10.05,8.08-13.31,14.03-3.26,5.96-4.89,12.61-4.89,19.96s1.63,13.96,4.89,19.85c3.25,5.89,7.69,10.53,13.31,13.93,5.61,3.4,11.88,5.09,18.81,5.09s13.2-1.7,18.81-5.09Z"/>
        <path class="cls-1" d="M1084.73,158.83c-8.32-2.91-14.83-6.72-19.54-11.43-1.8-1.8-2.7-3.95-2.7-6.45,0-3.33,1.38-6.03,4.16-8.11,2.63-1.94,5.06-2.91,7.28-2.91,2.77,0,5.4,1.25,7.9,3.74,2.63,2.91,6.58,5.44,11.85,7.59,5.27,2.15,10.88,3.22,16.84,3.22,7.9,0,14.03-1.32,18.4-3.95,4.37-2.63,6.55-6.16,6.55-10.6s-2.15-7.86-6.45-10.71c-4.3-2.84-11.57-5.23-21.83-7.17-26.61-5.13-39.91-16.08-39.91-32.85,0-6.79,2.01-12.54,6.03-17.25,4.02-4.71,9.28-8.24,15.8-10.6,6.51-2.36,13.44-3.53,20.79-3.53,9.01,0,17.08,1.46,24.22,4.37,7.14,2.91,12.78,6.93,16.94,12.06,1.8,2.22,2.7,4.44,2.7,6.65,0,2.36-1.18,4.5-3.53,6.44-1.53,1.11-3.47,1.66-5.82,1.66-3.61,0-6.86-1.32-9.77-3.95-3.47-3.19-7.14-5.44-11.02-6.76-3.88-1.32-8.6-1.98-14.14-1.98-6.38,0-11.61,1.07-15.7,3.22-4.09,2.15-6.13,5.16-6.13,9.04,0,2.77.69,5.09,2.08,6.96,1.38,1.87,4.02,3.61,7.9,5.2,3.88,1.59,9.49,3.15,16.84,4.68,15.1,3.05,25.81,7.28,32.12,12.68,6.3,5.4,9.46,12.4,9.46,21,0,6.38-1.74,12.16-5.2,17.36-3.47,5.2-8.56,9.29-15.28,12.27-6.72,2.98-14.8,4.47-24.22,4.47s-18.29-1.45-26.61-4.37Z"/>
        <path class="cls-1" d="M1271.83,110.28c-1.8,1.73-4.09,2.6-6.86,2.6h-79c1.52,9.7,5.92,17.53,13.2,23.49,7.27,5.96,16.18,8.94,26.71,8.94,4.16,0,8.49-.76,12.99-2.29,4.5-1.52,8.21-3.39,11.12-5.61,1.94-1.52,4.23-2.29,6.86-2.29s4.71.7,6.24,2.08c2.49,2.08,3.74,4.44,3.74,7.07,0,2.49-1.11,4.57-3.33,6.24-4.71,3.74-10.57,6.79-17.57,9.15-7,2.36-13.69,3.53-20.06,3.53-11.36,0-21.55-2.46-30.56-7.38-9.01-4.92-16.04-11.75-21.1-20.48-5.06-8.73-7.59-18.64-7.59-29.73s2.39-21.03,7.17-29.83c4.78-8.8,11.43-15.66,19.96-20.58,8.52-4.92,18.19-7.38,29-7.38s19.88,2.36,27.65,7.07c7.76,4.71,13.72,11.3,17.88,19.75,4.16,8.45,6.24,18.16,6.24,29.1,0,2.63-.9,4.82-2.7,6.55ZM1198.13,74.01c-6.31,5.54-10.29,12.96-11.95,22.24h69.23c-1.25-9.28-4.71-16.7-10.39-22.24-5.69-5.54-13.1-8.32-22.24-8.32-10.12,0-18.33,2.77-24.64,8.32Z"/>
        <path class="cls-1" d="M1364.12,50.72c4.16,2.22,6.24,4.99,6.24,8.32,0,.97-.07,1.66-.21,2.08-1.25,4.44-4.02,6.65-8.32,6.65-.7,0-1.74-.14-3.12-.42-5.54-.97-10.05-1.45-13.51-1.45-9.98,0-18.02,2.29-24.11,6.86-6.1,4.57-9.15,10.74-9.15,18.5v60.7c0,3.33-.87,5.89-2.6,7.69-1.74,1.8-4.33,2.7-7.8,2.7s-5.89-.86-7.69-2.6c-1.8-1.73-2.7-4.33-2.7-7.8V59.04c0-3.33.9-5.89,2.7-7.69,1.8-1.8,4.37-2.7,7.69-2.7,6.93,0,10.4,3.47,10.4,10.39v3.95c4.16-4.85,9.28-8.66,15.38-11.43,6.1-2.77,12.61-4.16,19.54-4.16,7.34,0,13.1,1.11,17.25,3.33Z"/>
      </g>
    </g>
  </g>
</svg>