<?xml version="1.0" encoding="UTF-8"?>
<svg id="Camada_2" data-name="Camada 2" xmlns="http://www.w3.org/2000/svg" viewBox="0 0 1405.07 402.14">
  <defs>
    <style>
      .cls-1 {
        fill: #fff;
      }
    </style>
  </defs>
  <g id="Layer_1" data-name="Layer 1">
    <g>
      <path class="cls-1" d="M808.28,86.92c-4.78-2.29-9.93-4.08-15.26-5.33-5.15-1.21-10.03-2.38-14.65-3.51-4.27-1.05-7.77-2.45-10.37-4.14-2.06-1.34-3.01-3.13-3.01-5.63,0-3.02,1.55-5.53,4.75-7.66,3.52-2.34,8.73-3.53,15.49-3.53,4.24,0,8.23.32,11.87.96,3.66.65,7.08,1.49,10.14,2.51.55.19,1.11.32,1.63.41.57.1,1.18.14,1.9.14,3.08,0,5.71-1.11,7.81-3.3,2.06-2.16,3.11-4.72,3.11-7.61,0-2.04-.66-4.09-1.97-6.09-1.39-2.13-3.39-3.58-5.77-4.25-4.27-1.52-8.97-2.77-14-3.73-5.05-.97-10.48-1.46-16.11-1.46-13.68,0-24.21,3.29-31.29,9.8-7.15,6.57-10.78,14.92-10.78,24.83,0,6.65,1.65,12.2,4.9,16.5,3.15,4.17,7.29,7.5,12.31,9.91,4.78,2.29,9.86,4.11,15.11,5.42,5.09,1.28,9.96,2.49,14.58,3.62,4.35,1.07,7.9,2.37,10.54,3.84,2.52,1.42,2.85,3.05,2.85,4.33,0,3.64-1.31,6.24-4.1,8.2-3.03,2.12-8.2,3.2-15.34,3.2-5.61,0-10.53-.58-14.61-1.7-4.21-1.17-8.1-2.55-11.56-4.08-1.57-.7-3.19-1.05-4.78-1.05-3.08,0-5.78,1.2-7.79,3.49-1.93,2.21-2.93,4.71-2.93,7.43,0,3.74,1.61,6.84,4.64,8.98l.26.16c5.28,2.92,11.07,5.24,17.23,6.9,6.18,1.66,13.16,2.51,20.75,2.51,13.54,0,23.95-3.19,30.97-9.48,7.1-6.37,10.7-14.16,10.7-23.15,0-7.16-1.65-13.01-4.89-17.39-3.15-4.25-7.3-7.62-12.32-10.03"/>
      <path class="cls-1" d="M995.87,40.49c-5.82-3.86-12.91-5.81-21.09-5.81-9.5,0-17.5,2.08-23.78,6.2-3.9,2.54-7.48,5.3-10.72,8.25V13.17c0-3.48-1.21-6.41-3.6-8.71-2.36-2.27-5.23-3.41-8.52-3.41s-6.18,1.16-8.47,3.45c-2.3,2.3-3.46,5.21-3.46,8.67v120.87c0,3.33,1.16,6.18,3.46,8.47,2.29,2.29,5.15,3.45,8.47,3.45s6.16-1.14,8.52-3.41c2.39-2.3,3.6-5.16,3.6-8.51v-59.3c3.7-4.54,8.04-8.63,12.88-12.14,4.83-3.5,10.62-5.28,17.2-5.28,6.94,0,11.9,1.82,14.73,5.42,2.99,3.82,4.51,9.28,4.51,16.22v55.07c0,3.33,1.16,6.18,3.45,8.47,2.3,2.29,5.15,3.45,8.47,3.45s6.16-1.14,8.52-3.41c2.39-2.3,3.6-5.16,3.6-8.51v-57.09c0-7.63-1.51-14.7-4.5-21.02-3.03-6.42-7.5-11.61-13.27-15.44"/>
      <path class="cls-1" d="M1069.44,58.66c8.05-3.66,15.69-3.66,23.75,0,3.95,1.8,7.39,4.67,10.22,8.53,2.35,3.19,3.85,7.32,4.5,12.31h-53c.65-5,2.12-9.14,4.42-12.33,2.77-3.86,6.17-6.72,10.12-8.51M1109.05,42.3c-7.56-5.06-16.89-7.62-27.73-7.62-11.68,0-21.45,2.75-29.01,8.18-7.51,5.39-13.11,12.47-16.66,21.04-3.47,8.42-5.24,17.48-5.24,26.93,0,17.59,4.91,31.49,14.6,41.32,9.68,9.84,23.26,14.82,40.34,14.82,8.96,0,16.26-.89,21.7-2.65,5.32-1.73,10.34-3.94,14.85-6.54,1.81-.99,3.36-2.29,4.6-3.86,1.41-1.79,2.12-3.84,2.12-6.11,0-3.06-1.15-5.74-3.34-7.75-2.15-1.96-4.69-2.96-7.57-2.96-1.79,0-3.44.38-4.91,1.11-3.57,1.79-7.38,3.24-11.33,4.32-3.89,1.07-8.77,1.61-14.52,1.61-10.05,0-17.77-2.48-22.96-7.36-4.53-4.27-7.5-9.86-8.86-16.64h64.78c3.62,0,6.58-1.18,8.81-3.49,2.2-2.29,3.32-5.13,3.32-8.43,0-9.37-1.96-18.17-5.82-26.17-3.89-8.07-9.66-14.71-17.16-19.73"/>
      <path class="cls-1" d="M1235.08,35.69c-3.32,0-6.17,1.16-8.45,3.46-2.3,2.3-3.47,5.21-3.47,8.66v86.24c0,3.33,1.16,6.18,3.47,8.47,2.28,2.29,5.13,3.45,8.45,3.45s6.37-1.16,8.67-3.45c2.29-2.3,3.46-5.15,3.46-8.47V47.81c0-3.46-1.16-6.37-3.46-8.66-2.3-2.3-5.22-3.46-8.67-3.46"/>
      <path class="cls-1" d="M1235.89,2.15h-1.2c-3.59,0-6.71,1.29-9.27,3.86-2.56,2.56-3.86,5.68-3.86,9.27v.8c0,3.59,1.3,6.71,3.86,9.27,2.56,2.57,5.68,3.86,9.27,3.86h1.2c3.59,0,6.71-1.29,9.27-3.86,2.56-2.55,3.86-5.67,3.86-9.27v-.8c0-3.59-1.3-6.72-3.86-9.27-2.56-2.56-5.68-3.86-9.27-3.86"/>
      <path class="cls-1" d="M1350.67,116.49c-1.95,0-3.91.52-5.71,1.51-3.39,1.69-6.75,3.18-9.99,4.42-3,1.14-6.99,1.71-11.84,1.71-10.79,0-19.26-3.09-25.16-9.18-6.02-6.2-8.95-14.08-8.95-24.13s2.94-17.93,8.95-24.13c5.9-6.09,14.37-9.17,25.16-9.17,4.87,0,8.88.55,11.89,1.63,3.19,1.15,6.51,2.65,9.85,4.44,1.9,1.04,3.85,1.56,5.81,1.56,2.97,0,5.61-1.26,7.61-3.63,1.93-2.27,2.9-4.71,2.9-7.28,0-3.91-1.84-7.18-5.28-9.42-3.51-2.39-8.07-4.68-13.54-6.83-5.61-2.19-12.63-3.31-20.85-3.31-9.93,0-19.3,2.24-27.85,6.66-8.6,4.44-15.6,10.9-20.81,19.21-5.23,8.34-7.88,18.52-7.88,30.27s2.66,21.77,7.87,30.17c5.21,8.38,12.22,14.88,20.82,19.33,8.55,4.41,17.92,6.65,27.85,6.65,8.23,0,15.26-1.16,20.88-3.43,5.43-2.19,9.94-4.44,13.46-6.69,3.48-2.26,5.32-5.53,5.32-9.44,0-2.57-.97-5.02-2.9-7.29-2.01-2.37-4.64-3.63-7.61-3.63"/>
      <path class="cls-1" d="M893.78,123.33c-2.09,0-4.11.37-5.97,1.1-.83.32-2.56.71-6.09.71-1.45,0-3.16-.16-5.07-.46-1.39-.23-2.56-.92-3.59-2.14-.69-.82-1.53-2.63-1.53-6.58v-57.92h19.48c3.09,0,5.71-1.04,7.77-3.1,2.06-2.05,3.1-4.67,3.1-7.76s-1.04-5.53-3.1-7.58c-2.05-2.06-4.67-3.1-7.77-3.1h-19.56V13.03c0-3.45-1.15-6.37-3.45-8.66-2.3-2.3-5.22-3.46-8.67-3.46s-6.17,1.16-8.46,3.46c-2.29,2.29-3.46,5.2-3.46,8.66v23.46h-7.11c-2.99,0-5.54,1.05-7.6,3.1-2.05,2.06-3.09,4.61-3.09,7.58s1.03,5.7,3.09,7.76c2.06,2.06,4.61,3.1,7.6,3.1h7.11v55.96c0,.31.03.61.07.91v2.66c0,6.67,1.23,12.1,3.62,16.14,2.41,4.06,5.46,7.09,9.07,9.02,3.42,1.82,6.98,2.99,10.6,3.52,3.41.49,6.41.73,8.95.73,3.41,0,6.65-.37,9.62-1.09,2.93-.71,5.69-1.65,8.38-2.85,5.1-2.66,6.17-6.68,6.17-9.59s-1.09-5.47-3.16-7.35c-2.02-1.82-4.35-2.75-6.95-2.75"/>
      <path class="cls-1" d="M1201.06,123.33c-2.09,0-4.1.37-5.97,1.1-.83.32-2.55.71-6.09.71-1.45,0-3.16-.16-5.06-.46-1.4-.23-2.57-.92-3.59-2.14-.7-.82-1.53-2.63-1.53-6.58v-57.92h19.48c3.09,0,5.71-1.04,7.77-3.1,2.06-2.05,3.09-4.67,3.09-7.76s-1.03-5.53-3.09-7.58c-2.06-2.06-4.67-3.1-7.77-3.1h-19.56V13.03c0-3.45-1.16-6.37-3.46-8.66-2.29-2.3-5.21-3.46-8.67-3.46s-6.17,1.16-8.45,3.46c-2.3,2.29-3.47,5.2-3.47,8.66v23.46h-7.11c-2.98,0-5.54,1.05-7.59,3.1-2.06,2.06-3.1,4.61-3.1,7.58s1.04,5.7,3.1,7.76c2.05,2.06,4.6,3.1,7.59,3.1h7.11v55.96c0,.31.03.61.07.91v2.66c0,6.67,1.23,12.1,3.63,16.14,2.4,4.06,5.46,7.09,9.07,9.02,3.41,1.82,6.98,2.99,10.59,3.52,3.42.49,6.42.73,8.95.73,3.42,0,6.65-.37,9.63-1.09,2.93-.71,5.69-1.65,8.38-2.85,5.11-2.66,6.18-6.68,6.18-9.59s-1.09-5.47-3.17-7.35c-2.01-1.82-4.35-2.75-6.95-2.75"/>
      <path class="cls-1" d="M664.21,58.66c8.05-3.66,15.7-3.66,23.75,0,3.95,1.8,7.39,4.67,10.23,8.53,2.34,3.19,3.84,7.32,4.5,12.31h-53c.65-5,2.12-9.14,4.41-12.33,2.78-3.86,6.17-6.72,10.12-8.51M703.81,42.3c-7.56-5.06-16.89-7.62-27.73-7.62-11.68,0-21.44,2.75-29.01,8.18-7.52,5.39-13.12,12.47-16.66,21.04-3.47,8.42-5.25,17.48-5.25,26.93,0,17.59,4.91,31.49,14.6,41.32,9.69,9.84,23.27,14.82,40.34,14.82,8.96,0,16.26-.89,21.7-2.65,5.32-1.73,10.35-3.94,14.85-6.54,1.81-.99,3.36-2.29,4.6-3.86,1.41-1.79,2.13-3.84,2.13-6.11,0-3.06-1.15-5.74-3.35-7.75-2.15-1.96-4.69-2.96-7.57-2.96-1.79,0-3.44.38-4.9,1.11-3.58,1.79-7.39,3.24-11.34,4.32-3.88,1.07-8.77,1.61-14.52,1.61-10.05,0-17.77-2.48-22.95-7.36-4.53-4.27-7.51-9.86-8.87-16.64h64.77c3.62,0,6.57-1.18,8.81-3.49,2.2-2.29,3.32-5.13,3.32-8.43,0-9.37-1.95-18.17-5.81-26.17-3.89-8.07-9.66-14.71-17.17-19.73"/>
      <path class="cls-1" d="M682.61,385.57c2.52,0,4.62-.82,6.28-2.46,1.66-1.64,2.49-4.03,2.49-7.17s-.84-5.56-2.49-7.19c-1.66-1.62-3.75-2.43-6.28-2.43-1.75,0-3.34.38-4.77,1.15-1.42.76-2.66,1.72-3.69,2.85v11.23c1.03,1.15,2.26,2.1,3.69,2.86,1.42.76,3.01,1.15,4.77,1.15M683.31,390.11c-1.86,0-3.53-.36-5.03-1.07-1.5-.72-2.87-1.71-4.12-3v1.39c0,.68-.23,1.25-.69,1.71-.46.46-1.06.69-1.76.69s-1.25-.24-1.71-.69c-.46-.46-.7-1.03-.7-1.71v-34.7c0-.71.24-1.29.7-1.76.46-.46,1.03-.7,1.71-.7s1.3.24,1.76.7c.46.47.69,1.05.69,1.76v13.1c1.25-1.28,2.62-2.28,4.12-3,1.49-.71,3.17-1.06,5.03-1.06,2.18,0,4.24.55,6.2,1.66,1.95,1.1,3.57,2.71,4.84,4.81,1.26,2.11,1.9,4.67,1.9,7.7s-.64,5.6-1.9,7.7c-1.27,2.11-2.89,3.71-4.84,4.81-1.96,1.11-4.02,1.66-6.2,1.66"/>
      <path class="cls-1" d="M706.29,373.7h15.77c-.11-1.85-.58-3.35-1.42-4.5-.84-1.14-1.84-1.98-3.01-2.51-1.17-.53-2.34-.8-3.48-.8s-2.3.26-3.48.8-2.18,1.37-2.99,2.51c-.82,1.15-1.28,2.64-1.39,4.5M715.21,390.11c-4.35,0-7.75-1.24-10.18-3.72-2.44-2.47-3.66-5.96-3.66-10.45,0-2.42.44-4.71,1.33-6.87.9-2.15,2.28-3.91,4.17-5.26,1.89-1.36,4.31-2.03,7.28-2.03,2.74,0,5.06.63,6.95,1.9,1.89,1.26,3.32,2.91,4.3,4.94.98,2.03,1.47,4.25,1.47,6.63,0,.68-.22,1.25-.67,1.71-.44.47-1.04.7-1.79.7h-18.11c.28,2.39,1.18,4.3,2.72,5.74,1.53,1.44,3.74,2.17,6.62,2.17,1.61,0,2.97-.15,4.07-.46,1.1-.3,2.16-.7,3.15-1.2.29-.14.61-.22.96-.22.58,0,1.07.2,1.49.58.43.39.65.9.65,1.5,0,.43-.13.81-.39,1.15-.27.34-.6.61-.99.83-1.17.68-2.45,1.24-3.82,1.68-1.38.45-3.22.67-5.54.67"/>
      <path class="cls-1" d="M742.05,385.83c1.68,0,3.24-.41,4.71-1.23,1.45-.82,2.64-1.75,3.53-2.78v-4.49h-5.83c-2.49,0-4.47.32-5.91.96-1.44.65-2.16,1.73-2.16,3.26,0,1.15.4,2.14,1.2,2.99.8.86,2.29,1.29,4.46,1.29M740.24,390.11c-1.54,0-2.97-.32-4.3-.96-1.34-.64-2.41-1.56-3.22-2.75-.8-1.19-1.2-2.63-1.2-4.3,0-2.53,1.01-4.61,3.02-6.23,2.01-1.62,5.11-2.43,9.28-2.43h6.47v-.42c0-2.39-.59-4.09-1.76-5.11-1.18-1.02-2.98-1.53-5.4-1.53-1.51,0-2.81.14-3.93.4-1.14.26-2.19.56-3.19.88-.29.08-.52.11-.69.11-.54,0-1-.19-1.4-.59-.39-.39-.59-.87-.59-1.44,0-.96.46-1.64,1.4-2.03,1.24-.53,2.62-.99,4.14-1.36,1.51-.38,3.22-.56,5.1-.56,2.61,0,4.73.51,6.36,1.55,1.64,1.03,2.86,2.36,3.64,3.96s1.17,3.28,1.17,5.02v15.13c0,.68-.24,1.25-.72,1.71-.48.46-1.06.69-1.74.69s-1.24-.24-1.7-.69c-.46-.46-.69-1.03-.69-1.71v-1.39c-.96,1-2.24,1.93-3.85,2.79-1.61.85-3.68,1.28-6.2,1.28"/>
      <path class="cls-1" d="M772.43,390.11c-2.03,0-3.76-.47-5.19-1.42-1.42-.94-2.51-2.22-3.26-3.82-.74-1.61-1.12-3.35-1.12-5.24v-15.19c0-.67.23-1.25.72-1.71.47-.47,1.06-.7,1.73-.7s1.25.23,1.72.7c.45.46.68,1.04.68,1.71v14.65c0,2.04.46,3.63,1.4,4.78.92,1.16,2.43,1.74,4.49,1.74,1.93,0,3.6-.53,5.02-1.58,1.42-1.05,2.68-2.24,3.74-3.55v-16.04c0-.67.24-1.25.72-1.71.48-.47,1.06-.7,1.74-.7s1.24.23,1.71.7c.46.46.69,1.04.69,1.71v22.94c0,.67-.23,1.25-.69,1.73-.47.48-1.04.72-1.71.72s-1.26-.24-1.74-.72-.72-1.06-.72-1.73v-2.19c-1.11,1.21-2.45,2.33-4,3.36-1.57,1.04-3.55,1.55-5.94,1.55"/>
      <path class="cls-1" d="M805.09,390.11c-.64,0-1.4-.06-2.27-.19-.87-.12-1.72-.41-2.56-.85-.84-.45-1.54-1.16-2.11-2.12-.57-.96-.87-2.26-.87-3.9v-16.57h-3.78c-.68,0-1.02-.34-1.02-1.02,0-.36.16-.66.47-.91l7.28-7.11c.07-.07.18-.17.35-.29s.36-.19.56-.19c.29,0,.53.11.72.32.19.21.3.46.3.75v4.27h6.04c.61,0,1.11.2,1.51.59.38.39.58.9.58,1.5,0,.57-.19,1.06-.58,1.47-.4.41-.9.61-1.51.61h-6.04v16.14c0,1.04.19,1.79.59,2.25.39.47.87.74,1.42.83.55.09,1.04.14,1.46.14.86,0,1.49-.08,1.9-.24.41-.16.85-.24,1.31-.24.5,0,.94.18,1.34.53.39.36.59.82.59,1.39,0,.82-.4,1.44-1.23,1.87-.64.29-1.32.52-2.05.69-.74.18-1.53.27-2.39.27"/>
      <path class="cls-1" d="M821.93,402.14c-.64,0-1.19-.23-1.64-.69-.44-.47-.66-1.02-.66-1.66,0-.33.05-.61.16-.86l3.48-8.92-10.06-24.49c-.03-.14-.08-.3-.13-.48-.06-.18-.08-.36-.08-.53,0-.68.22-1.26.68-1.74.46-.48,1.04-.72,1.71-.72.5,0,.95.14,1.36.43.41.28.71.64.89,1.07l8.24,20.42,8.38-20.31c.22-.5.51-.9.89-1.18.38-.28.84-.43,1.37-.43.68,0,1.24.24,1.71.72.46.48.69,1.06.69,1.74,0,.32-.05.63-.16.91l-14.59,35.07c-.21.46-.5.85-.86,1.17-.36.32-.82.48-1.39.48"/>
      <path class="cls-1" d="M861.71,373.7h15.77c-.11-1.85-.58-3.35-1.42-4.5-.84-1.14-1.85-1.98-3.02-2.51-1.17-.53-2.33-.8-3.48-.8s-2.3.26-3.48.8-2.17,1.37-2.99,2.51c-.82,1.15-1.28,2.64-1.39,4.5M870.64,390.11c-4.35,0-7.74-1.24-10.18-3.72-2.44-2.47-3.66-5.96-3.66-10.45,0-2.42.44-4.71,1.33-6.87.9-2.15,2.28-3.91,4.18-5.26,1.89-1.36,4.31-2.03,7.27-2.03,2.74,0,5.06.63,6.95,1.9,1.89,1.26,3.32,2.91,4.3,4.94.98,2.03,1.47,4.25,1.47,6.63,0,.68-.22,1.25-.67,1.71-.44.47-1.04.7-1.79.7h-18.12c.28,2.39,1.19,4.3,2.72,5.74,1.54,1.44,3.74,2.17,6.62,2.17,1.61,0,2.97-.15,4.07-.46s2.16-.7,3.15-1.2c.29-.14.61-.22.96-.22.58,0,1.07.2,1.49.58.43.39.65.9.65,1.5,0,.43-.13.81-.4,1.15-.27.34-.6.61-.99.83-1.17.68-2.45,1.24-3.82,1.68-1.38.45-3.22.67-5.54.67"/>
      <path class="cls-1" d="M900.69,385.56c1.74,0,3.33-.38,4.76-1.15,1.42-.77,2.65-1.72,3.69-2.86v-11.23c-1.04-1.14-2.26-2.09-3.69-2.86-1.42-.77-3.01-1.15-4.76-1.15-2.53,0-4.62.81-6.29,2.43-1.66,1.62-2.48,4.02-2.48,7.19s.83,5.52,2.48,7.16c1.67,1.64,3.75,2.46,6.29,2.46M911.59,402.14c-.67,0-1.25-.24-1.73-.72-.48-.48-.72-1.06-.72-1.74v-13.63c-1.2,1.28-2.56,2.28-4.06,2.99-1.49.72-3.19,1.07-5.07,1.07-2.15,0-4.2-.55-6.18-1.66-1.97-1.1-3.6-2.71-4.86-4.81-1.27-2.1-1.91-4.67-1.91-7.7s.64-5.6,1.91-7.7c1.26-2.1,2.89-3.71,4.86-4.81,1.98-1.11,4.03-1.66,6.18-1.66,1.89,0,3.58.36,5.07,1.07,1.5.71,2.86,1.71,4.06,2.99v-1.39c0-.67.24-1.25.72-1.7.48-.47,1.06-.7,1.73-.7s1.26.23,1.72.7c.45.46.68,1.03.68,1.7v35.24c0,.67-.23,1.26-.68,1.74-.46.48-1.04.72-1.72.72"/>
      <path class="cls-1" d="M931.75,390.11c-2.03,0-3.76-.47-5.19-1.42-1.42-.94-2.51-2.22-3.26-3.82-.74-1.61-1.12-3.35-1.12-5.24v-15.19c0-.67.24-1.25.72-1.71.48-.47,1.06-.7,1.73-.7s1.25.23,1.72.7c.45.46.68,1.04.68,1.71v14.65c0,2.04.47,3.63,1.4,4.78.92,1.16,2.43,1.74,4.49,1.74,1.93,0,3.6-.53,5.03-1.58,1.42-1.05,2.67-2.24,3.74-3.55v-16.04c0-.67.24-1.25.72-1.71.49-.47,1.06-.7,1.74-.7s1.24.23,1.71.7c.46.46.69,1.04.69,1.71v22.94c0,.67-.23,1.25-.69,1.73-.47.48-1.04.72-1.71.72s-1.25-.24-1.74-.72c-.48-.48-.72-1.06-.72-1.73v-2.19c-1.11,1.21-2.44,2.33-4,3.36-1.57,1.04-3.55,1.55-5.94,1.55"/>
      <path class="cls-1" d="M957.41,389.84c-.67,0-1.24-.23-1.7-.69-.46-.46-.7-1.03-.7-1.71v-22.94c0-.71.24-1.3.7-1.77.46-.46,1.03-.69,1.7-.69.72,0,1.3.23,1.77.69.46.47.69,1.05.69,1.77v22.94c0,.68-.23,1.25-.69,1.71-.47.46-1.05.69-1.77.69M957.3,356.75c-.75,0-1.39-.26-1.93-.8-.53-.53-.8-1.17-.8-1.93v-.22c0-.75.27-1.39.8-1.92.54-.54,1.17-.8,1.93-.8h.32c.75,0,1.4.26,1.94.8.53.53.8,1.17.8,1.92v.22c0,.75-.27,1.39-.8,1.93-.54.53-1.18.8-1.94.8h-.32Z"/>
      <path class="cls-1" d="M981.63,385.56c2.53,0,4.62-.82,6.29-2.46,1.65-1.64,2.48-4.02,2.48-7.16s-.84-5.57-2.48-7.19c-1.67-1.62-3.75-2.43-6.29-2.43-1.75,0-3.33.38-4.77,1.15-1.42.77-2.65,1.72-3.68,2.86v11.23c1.03,1.14,2.25,2.09,3.68,2.86,1.43.76,3.01,1.15,4.77,1.15M970.72,402.14c-.68,0-1.25-.24-1.71-.72-.46-.48-.69-1.06-.69-1.74v-35.24c0-.67.23-1.25.69-1.7.46-.47,1.03-.7,1.71-.7s1.3.23,1.76.7c.46.46.7,1.03.7,1.7v1.39c1.24-1.28,2.61-2.28,4.11-2.99,1.49-.71,3.17-1.07,5.02-1.07,2.18,0,4.25.55,6.2,1.66,1.95,1.11,3.57,2.71,4.84,4.81,1.26,2.1,1.9,4.67,1.9,7.7s-.64,5.6-1.9,7.7c-1.27,2.1-2.89,3.71-4.84,4.81-1.95,1.11-4.02,1.66-6.2,1.66-1.86,0-3.53-.35-5.02-1.07-1.5-.71-2.87-1.71-4.11-2.99v13.63c0,.67-.24,1.26-.7,1.74-.46.48-1.05.72-1.76.72"/>
      <path class="cls-1" d="M1004.46,389.84c-.68,0-1.25-.23-1.71-.69-.46-.47-.69-1.03-.69-1.71v-22.94c0-.68.23-1.26.69-1.74.46-.48,1.03-.72,1.71-.72s1.25.24,1.73.72c.48.48.73,1.06.73,1.74v2.19c.49-.71,1.12-1.44,1.89-2.19.77-.75,1.74-1.39,2.92-1.93,1.17-.53,2.6-.8,4.27-.8,2.14,0,3.9.57,5.27,1.71,1.38,1.14,2.35,2.41,2.92,3.79.43-.67,1.04-1.44,1.82-2.3.78-.85,1.83-1.6,3.13-2.24,1.3-.64,2.93-.97,4.89-.97,2.1,0,3.81.53,5.14,1.58,1.31,1.05,2.27,2.36,2.88,3.93.61,1.57.9,3.16.9,4.76v15.4c0,.68-.23,1.25-.71,1.71-.48.46-1.07.69-1.74.69s-1.25-.23-1.71-.69c-.45-.47-.69-1.03-.69-1.71v-14.44c0-2.24-.39-3.93-1.2-5.05-.8-1.12-2.21-1.68-4.26-1.68-1.35,0-2.51.26-3.48.78-.96.52-1.78,1.17-2.46,1.95-.67.78-1.27,1.59-1.77,2.41v16.04c0,.68-.23,1.25-.71,1.71-.48.46-1.07.69-1.74.69s-1.25-.23-1.7-.69c-.46-.47-.69-1.03-.69-1.71v-14.44c0-2.24-.4-3.93-1.21-5.05-.8-1.12-2.21-1.68-4.25-1.68-1.36,0-2.51.26-3.48.78-.96.52-1.78,1.17-2.46,1.95-.67.78-1.26,1.59-1.75,2.41v16.04c0,.68-.25,1.25-.73,1.71-.48.46-1.06.69-1.73.69"/>
      <path class="cls-1" d="M1054.4,373.7h15.77c-.11-1.85-.58-3.35-1.42-4.5-.84-1.14-1.85-1.98-3.02-2.51s-2.33-.8-3.47-.8-2.3.26-3.48.8c-1.18.53-2.18,1.37-3,2.51-.82,1.15-1.28,2.64-1.39,4.5M1063.32,390.11c-4.34,0-7.74-1.24-10.18-3.72-2.44-2.47-3.66-5.96-3.66-10.45,0-2.42.44-4.71,1.34-6.87.89-2.15,2.27-3.91,4.17-5.26,1.9-1.36,4.31-2.03,7.28-2.03,2.73,0,5.05.63,6.94,1.9,1.9,1.26,3.32,2.91,4.31,4.94.97,2.03,1.46,4.25,1.46,6.63,0,.68-.22,1.25-.67,1.71-.44.47-1.04.7-1.78.7h-18.13c.29,2.39,1.19,4.3,2.72,5.74,1.53,1.44,3.74,2.17,6.63,2.17,1.6,0,2.96-.15,4.06-.46,1.11-.3,2.16-.7,3.16-1.2.28-.14.6-.22.96-.22.57,0,1.07.2,1.49.58.42.39.65.9.65,1.5,0,.43-.14.81-.4,1.15-.27.34-.6.61-.99.83-1.17.68-2.45,1.24-3.82,1.68s-3.22.67-5.54.67"/>
      <path class="cls-1" d="M1083.8,389.84c-.67,0-1.24-.23-1.7-.69-.47-.47-.7-1.03-.7-1.71v-22.94c0-.71.23-1.3.7-1.76.46-.46,1.03-.7,1.7-.7s1.26.24,1.74.7c.48.46.72,1.05.72,1.76v2.19c1.14-1.25,2.48-2.37,4.03-3.39,1.55-1.02,3.52-1.53,5.9-1.53,2.04,0,3.76.48,5.19,1.42,1.42.95,2.52,2.21,3.26,3.8.75,1.58,1.13,3.34,1.13,5.27v15.18c0,.68-.24,1.25-.72,1.71-.48.46-1.06.69-1.74.69s-1.24-.23-1.7-.69c-.47-.47-.7-1.03-.7-1.71v-14.65c0-2.03-.45-3.63-1.36-4.78-.91-1.16-2.42-1.74-4.51-1.74-1.94,0-3.61.52-5.02,1.55-1.43,1.04-2.68,2.23-3.74,3.58v16.04c0,.68-.24,1.25-.72,1.71-.48.46-1.06.69-1.74.69"/>
      <path class="cls-1" d="M1122.73,390.11c-.65,0-1.41-.06-2.27-.19-.88-.12-1.73-.41-2.57-.85-.84-.45-1.54-1.16-2.11-2.12s-.86-2.26-.86-3.9v-16.57h-3.79c-.68,0-1.02-.34-1.02-1.02,0-.36.16-.66.48-.91l7.27-7.11c.07-.07.19-.17.35-.29.17-.13.36-.19.56-.19.3,0,.53.11.73.32.19.21.29.46.29.75v4.27h6.05c.61,0,1.1.2,1.5.59.38.39.58.9.58,1.5,0,.57-.19,1.06-.58,1.47-.4.41-.9.61-1.5.61h-6.05v16.14c0,1.04.19,1.79.59,2.25.39.47.87.74,1.42.83.55.09,1.04.14,1.46.14.87,0,1.49-.08,1.91-.24.4-.16.85-.24,1.3-.24.51,0,.95.18,1.35.53.38.36.58.82.58,1.39,0,.82-.4,1.44-1.22,1.87-.65.29-1.33.52-2.06.69-.73.18-1.53.27-2.38.27"/>
      <path class="cls-1" d="M1142.56,390.11c-1.96,0-3.74-.22-5.31-.64-1.6-.43-3.06-1.02-4.42-1.77-.61-.43-.9-1.02-.9-1.76,0-.53.19-1.03.59-1.48.39-.44.89-.66,1.49-.66.33,0,.64.07.96.22.96.42,2.03.8,3.18,1.12,1.16.32,2.53.48,4.1.48,2.06,0,3.57-.33,4.51-.99s1.42-1.6,1.42-2.81c0-.78-.38-1.38-1.16-1.81-.76-.43-1.76-.79-2.98-1.1-1.23-.3-2.52-.63-3.88-.96-1.36-.34-2.65-.8-3.88-1.39-1.22-.59-2.22-1.39-2.98-2.41-.77-1.02-1.15-2.32-1.15-3.93,0-2.43.87-4.44,2.62-6.04,1.74-1.61,4.35-2.41,7.81-2.41,1.46,0,2.84.12,4.14.38,1.3.25,2.51.56,3.61.96.5.14.89.42,1.15.83.26.41.39.81.39,1.2,0,.57-.2,1.07-.62,1.5-.4.43-.91.64-1.52.64-.14,0-.27,0-.38-.02-.11-.02-.21-.05-.32-.09-.86-.28-1.79-.51-2.81-.69-1.01-.18-2.11-.27-3.28-.27-1.96,0-3.48.36-4.54,1.07-1.07.71-1.61,1.6-1.61,2.68,0,.92.39,1.64,1.16,2.13.76.51,1.76.9,2.98,1.2,1.24.3,2.53.62,3.91.93,1.37.32,2.68.78,3.9,1.37,1.24.59,2.23,1.4,2.99,2.43.77,1.03,1.16,2.43,1.16,4.17,0,2.18-.87,4.04-2.6,5.59-1.72,1.55-4.3,2.33-7.72,2.33"/>
      <path class="cls-1" d="M1175.7,389.84c-.67,0-1.24-.23-1.7-.69-.46-.46-.69-1.03-.69-1.71v-22.94c0-.71.23-1.3.69-1.77.46-.46,1.03-.69,1.7-.69.72,0,1.31.23,1.77.69.46.47.69,1.05.69,1.77v22.94c0,.68-.23,1.25-.69,1.71-.46.46-1.05.69-1.77.69M1175.6,356.75c-.75,0-1.39-.26-1.93-.8-.53-.53-.8-1.17-.8-1.93v-.22c0-.75.27-1.39.8-1.92.54-.54,1.17-.8,1.93-.8h.32c.75,0,1.4.26,1.94.8.53.53.8,1.17.8,1.92v.22c0,.75-.27,1.39-.8,1.93-.54.53-1.18.8-1.94.8h-.32Z"/>
      <path class="cls-1" d="M1189.02,389.84c-.67,0-1.24-.23-1.7-.69-.46-.47-.69-1.03-.69-1.71v-22.94c0-.71.23-1.3.69-1.76.46-.46,1.03-.7,1.7-.7s1.26.24,1.74.7c.48.46.72,1.05.72,1.76v2.19c1.14-1.25,2.48-2.37,4.03-3.39,1.56-1.02,3.52-1.53,5.91-1.53,2.03,0,3.75.48,5.18,1.42,1.43.95,2.51,2.21,3.26,3.8.76,1.58,1.13,3.34,1.13,5.27v15.18c0,.68-.24,1.25-.72,1.71-.48.46-1.06.69-1.74.69s-1.24-.23-1.7-.69c-.46-.47-.69-1.03-.69-1.71v-14.65c0-2.03-.46-3.63-1.37-4.78-.9-1.16-2.42-1.74-4.52-1.74-1.92,0-3.59.52-5.02,1.55-1.42,1.04-2.68,2.23-3.74,3.58v16.04c0,.68-.24,1.25-.72,1.71-.48.46-1.06.69-1.74.69"/>
      <path class="cls-1" d="M1235.48,389.84c-.68,0-1.25-.23-1.71-.69-.46-.47-.69-1.03-.69-1.71v-22.94c0-.68.23-1.26.69-1.74.46-.48,1.03-.72,1.71-.72s1.25.24,1.73.72c.48.48.73,1.06.73,1.74v2.19c.49-.71,1.12-1.44,1.89-2.19.77-.75,1.74-1.39,2.92-1.93,1.17-.53,2.6-.8,4.27-.8,2.14,0,3.9.57,5.27,1.71,1.38,1.14,2.35,2.41,2.92,3.79.43-.67,1.04-1.44,1.82-2.3.78-.85,1.82-1.6,3.13-2.24,1.3-.64,2.94-.97,4.89-.97,2.1,0,3.81.53,5.14,1.58,1.31,1.05,2.27,2.36,2.88,3.93.61,1.57.9,3.16.9,4.76v15.4c0,.68-.23,1.25-.71,1.71-.48.46-1.07.69-1.74.69s-1.25-.23-1.71-.69c-.46-.47-.69-1.03-.69-1.71v-14.44c0-2.24-.4-3.93-1.2-5.05-.8-1.12-2.21-1.68-4.25-1.68-1.35,0-2.51.26-3.48.78-.96.52-1.77,1.17-2.46,1.95-.67.78-1.27,1.59-1.77,2.41v16.04c0,.68-.23,1.25-.71,1.71-.48.46-1.06.69-1.74.69s-1.25-.23-1.7-.69c-.46-.47-.69-1.03-.69-1.71v-14.44c0-2.24-.4-3.93-1.21-5.05-.8-1.12-2.21-1.68-4.25-1.68-1.36,0-2.51.26-3.48.78-.96.52-1.78,1.17-2.46,1.95-.67.78-1.26,1.59-1.75,2.41v16.04c0,.68-.25,1.25-.73,1.71-.48.46-1.06.69-1.73.69"/>
      <path class="cls-1" d="M1294.19,385.67c1.36,0,2.7-.32,4.06-.96,1.35-.64,2.48-1.68,3.4-3.13.9-1.44,1.36-3.34,1.36-5.69s-.45-4.24-1.36-5.67c-.91-1.42-2.05-2.46-3.4-3.08-1.36-.62-2.7-.94-4.06-.94s-2.71.32-4.09.94c-1.38.62-2.5,1.65-3.39,3.08-.9,1.42-1.34,3.31-1.34,5.67s.43,4.25,1.34,5.69c.89,1.44,2.01,2.48,3.39,3.13,1.38.65,2.73.96,4.09.96M1294.19,390.11c-2.74,0-5.15-.6-7.22-1.8-2.07-1.19-3.67-2.85-4.78-4.97-1.12-2.12-1.68-4.58-1.68-7.4s.57-5.28,1.68-7.4c1.12-2.12,2.71-3.78,4.78-4.97,2.07-1.19,4.48-1.79,7.22-1.79s5.14.6,7.19,1.79c2.04,1.19,3.64,2.85,4.78,4.97,1.14,2.12,1.71,4.59,1.71,7.4s-.58,5.29-1.71,7.4c-1.15,2.12-2.74,3.78-4.78,4.97-2.05,1.2-4.45,1.8-7.19,1.8"/>
      <path class="cls-1" d="M1323.86,390.11c-.65,0-1.41-.06-2.27-.19-.88-.12-1.73-.41-2.57-.85-.84-.45-1.54-1.16-2.11-2.12-.57-.96-.86-2.26-.86-3.9v-16.57h-3.79c-.68,0-1.02-.34-1.02-1.02,0-.36.16-.66.48-.91l7.27-7.11c.08-.07.19-.17.35-.29.17-.13.36-.19.57-.19.29,0,.52.11.72.32.19.21.3.46.3.75v4.27h6.04c.61,0,1.1.2,1.5.59.38.39.58.9.58,1.5,0,.57-.19,1.06-.58,1.47-.4.41-.9.61-1.5.61h-6.04v16.14c0,1.04.19,1.79.58,2.25.39.47.87.74,1.42.83.56.09,1.05.14,1.48.14.86,0,1.48-.08,1.9-.24.4-.16.85-.24,1.3-.24.51,0,.95.18,1.35.53.39.36.59.82.59,1.39,0,.82-.41,1.44-1.23,1.87-.65.29-1.33.52-2.05.69-.74.18-1.54.27-2.39.27"/>
      <path class="cls-1" d="M1337.28,389.84c-.68,0-1.24-.23-1.71-.69-.46-.46-.69-1.03-.69-1.71v-22.94c0-.71.23-1.3.69-1.77.47-.46,1.03-.69,1.71-.69s1.3.23,1.76.69c.47.47.7,1.05.7,1.77v22.94c0,.68-.23,1.25-.7,1.71-.46.46-1.05.69-1.76.69M1337.17,356.75c-.75,0-1.39-.26-1.93-.8-.53-.53-.8-1.17-.8-1.93v-.22c0-.75.27-1.39.8-1.92.54-.54,1.17-.8,1.93-.8h.33c.74,0,1.38.26,1.92.8.54.53.81,1.17.81,1.92v.22c0,.75-.27,1.39-.81,1.93-.54.53-1.17.8-1.92.8h-.33Z"/>
      <path class="cls-1" d="M1360.21,385.67c1.36,0,2.71-.32,4.07-.96,1.35-.64,2.48-1.68,3.39-3.13.91-1.44,1.36-3.34,1.36-5.69s-.44-4.24-1.36-5.67c-.9-1.42-2.04-2.46-3.39-3.08-1.36-.62-2.71-.94-4.07-.94s-2.71.32-4.08.94c-1.38.62-2.51,1.65-3.4,3.08-.9,1.42-1.34,3.31-1.34,5.67s.44,4.25,1.34,5.69c.89,1.44,2.02,2.48,3.4,3.13,1.37.65,2.73.96,4.08.96M1360.21,390.11c-2.74,0-5.15-.6-7.21-1.8-2.07-1.19-3.67-2.85-4.79-4.97-1.12-2.12-1.68-4.58-1.68-7.4s.57-5.28,1.68-7.4c1.13-2.12,2.72-3.78,4.79-4.97,2.06-1.19,4.47-1.79,7.21-1.79s5.14.6,7.19,1.79c2.05,1.19,3.65,2.85,4.78,4.97,1.15,2.12,1.71,4.59,1.71,7.4s-.57,5.29-1.71,7.4c-1.14,2.12-2.73,3.78-4.78,4.97-2.05,1.2-4.45,1.8-7.19,1.8"/>
      <path class="cls-1" d="M1383.09,389.84c-.68,0-1.24-.23-1.71-.69-.46-.47-.69-1.03-.69-1.71v-22.94c0-.71.23-1.3.69-1.76.47-.46,1.03-.7,1.71-.7s1.26.24,1.74.7c.48.46.72,1.05.72,1.76v2.19c1.14-1.25,2.48-2.37,4.03-3.39,1.55-1.02,3.52-1.53,5.9-1.53,2.04,0,3.76.48,5.19,1.42,1.42.95,2.51,2.21,3.26,3.8.75,1.58,1.13,3.34,1.13,5.27v15.18c0,.68-.24,1.25-.72,1.71-.48.46-1.06.69-1.74.69s-1.24-.23-1.71-.69c-.46-.47-.69-1.03-.69-1.71v-14.65c0-2.03-.45-3.63-1.36-4.78-.91-1.16-2.42-1.74-4.52-1.74-1.93,0-3.6.52-5.02,1.55-1.43,1.04-2.68,2.23-3.74,3.58v16.04c0,.68-.24,1.25-.72,1.71-.48.46-1.06.69-1.74.69"/>
      <path class="cls-1" d="M853.98,261.87c0,8.25-1.58,14.94-4.69,19.88-3.1,4.93-6.99,8.52-11.56,10.69-9.38,4.44-18.7,4.43-28.2,0-4.63-2.16-8.5-5.75-11.54-10.67-3.04-4.94-4.6-11.64-4.6-19.9s1.55-14.91,4.59-19.78c3.04-4.85,6.9-8.37,11.51-10.47,4.76-2.17,9.54-3.26,14.19-3.26s9.39,1.09,14.07,3.25c4.56,2.1,8.44,5.63,11.55,10.49,3.1,4.86,4.67,11.51,4.67,19.76M852.17,213.05c-8.12-4.72-17.7-7.12-28.49-7.12s-20.4,2.4-28.57,7.12c-8.21,4.74-14.63,11.42-19.1,19.84-4.42,8.35-6.66,18.17-6.66,29.18s2.24,20.83,6.67,29.19c4.46,8.42,10.88,15.1,19.09,19.84,8.17,4.73,17.79,7.12,28.57,7.12s20.38-2.39,28.49-7.12c8.13-4.73,14.55-11.41,19.08-19.82,4.49-8.36,6.78-18.18,6.78-29.21s-2.29-20.84-6.78-29.2c-4.53-8.41-10.95-15.08-19.08-19.82"/>
      <path class="cls-1" d="M907.71,172.3c-3.32,0-6.17,1.16-8.46,3.46-2.29,2.29-3.46,5.2-3.46,8.66v120.87c0,3.33,1.16,6.18,3.46,8.47,2.29,2.29,5.14,3.45,8.46,3.45s6.37-1.15,8.67-3.45c2.28-2.3,3.46-5.15,3.46-8.47v-120.87c0-3.46-1.17-6.37-3.46-8.66-2.3-2.3-5.22-3.46-8.67-3.46"/>
      <path class="cls-1" d="M1028.32,206.93c-3.3,0-6.17,1.15-8.53,3.42-2.39,2.3-3.59,5.16-3.59,8.5v59.28c-3.71,4.44-8.05,8.5-12.91,12.09-4.9,3.61-10.51,5.37-17.18,5.37s-11.71-1.79-14.64-5.46c-3.05-3.8-4.6-9.25-4.6-16.19v-55.08c0-3.32-1.16-6.17-3.46-8.46-2.29-2.3-5.14-3.46-8.46-3.46s-6.16,1.15-8.53,3.42c-2.39,2.3-3.59,5.16-3.59,8.5v57.09c0,7.49,1.51,14.53,4.49,20.91,3.03,6.5,7.5,11.73,13.28,15.56,5.81,3.85,12.91,5.8,21.09,5.8,9.5,0,17.54-2.12,23.88-6.31,3.89-2.56,7.44-5.29,10.63-8.16v1.34c0,3.34,1.19,6.22,3.55,8.57,2.36,2.35,5.24,3.55,8.57,3.55s6.2-1.21,8.5-3.6c2.27-2.35,3.42-5.22,3.42-8.52v-86.24c0-3.32-1.16-6.17-3.46-8.46-2.29-2.3-5.14-3.46-8.46-3.46"/>
      <path class="cls-1" d="M1151.72,173.39h-1.19c-3.59,0-6.71,1.3-9.27,3.86-2.56,2.56-3.85,5.68-3.85,9.27v.81c0,3.6,1.29,6.71,3.85,9.27,2.56,2.56,5.68,3.86,9.27,3.86h1.19c3.6,0,6.72-1.3,9.28-3.86,2.56-2.55,3.85-5.67,3.85-9.27v-.81c0-3.59-1.29-6.7-3.85-9.27-2.56-2.56-5.68-3.86-9.28-3.86"/>
      <path class="cls-1" d="M1150.93,206.93c-3.33,0-6.18,1.16-8.47,3.46-2.3,2.3-3.46,5.21-3.46,8.66v86.24c0,3.32,1.16,6.17,3.46,8.47,2.29,2.29,5.14,3.45,8.47,3.45s6.35-1.15,8.66-3.45c2.29-2.3,3.46-5.15,3.46-8.47v-86.24c0-3.45-1.16-6.37-3.46-8.67-2.3-2.29-5.22-3.45-8.66-3.45"/>
      <path class="cls-1" d="M1265.44,261.87c0,8.25-1.58,14.94-4.68,19.88-3.11,4.93-7.01,8.53-11.56,10.69-9.39,4.44-18.71,4.43-28.22,0-4.61-2.17-8.5-5.75-11.53-10.67-3.05-4.94-4.59-11.63-4.59-19.9s1.53-14.92,4.58-19.78c3.03-4.85,6.9-8.37,11.51-10.47,4.77-2.17,9.54-3.26,14.19-3.26s9.39,1.09,14.07,3.25c4.56,2.1,8.45,5.63,11.54,10.49,3.11,4.86,4.68,11.51,4.68,19.76M1263.63,213.05c-8.12-4.72-17.69-7.12-28.49-7.12s-20.4,2.4-28.57,7.12c-8.21,4.74-14.63,11.42-19.09,19.84-4.42,8.35-6.67,18.17-6.67,29.18s2.25,20.84,6.66,29.19c4.47,8.42,10.89,15.1,19.1,19.84,8.17,4.73,17.79,7.12,28.57,7.12s20.38-2.39,28.49-7.13c8.13-4.74,14.56-11.4,19.08-19.81,4.49-8.36,6.78-18.18,6.78-29.21s-2.29-20.84-6.78-29.2c-4.52-8.41-10.95-15.08-19.08-19.82"/>
      <path class="cls-1" d="M1400.17,227.17c-3.03-6.41-7.5-11.6-13.27-15.44-5.82-3.85-12.91-5.8-21.08-5.8-9.51,0-17.51,2.08-23.8,6.19-3.88,2.55-7.47,5.31-10.72,8.26v-1.33c0-3.48-1.21-6.4-3.59-8.7-2.36-2.27-5.23-3.42-8.53-3.42s-6.17,1.16-8.47,3.46c-2.29,2.29-3.45,5.2-3.45,8.66v86.24c0,3.33,1.15,6.18,3.45,8.46,2.3,2.29,5.15,3.46,8.47,3.46s6.17-1.15,8.53-3.42c2.38-2.29,3.59-5.16,3.59-8.5v-59.3c3.71-4.54,8.03-8.63,12.88-12.14,4.84-3.51,10.64-5.28,17.22-5.28,6.94,0,11.89,1.83,14.71,5.43,2.99,3.81,4.51,9.27,4.51,16.22v55.08c0,3.33,1.17,6.18,3.46,8.46,2.3,2.29,5.14,3.46,8.46,3.46s6.17-1.15,8.53-3.42c2.39-2.29,3.6-5.16,3.6-8.5v-57.09c0-7.62-1.51-14.7-4.5-21.03"/>
      <path class="cls-1" d="M1116.76,294.57c-2.11,0-4.11.37-5.98,1.1-.83.32-2.55.71-6.09.71-1.44,0-3.16-.15-5.07-.46-1.39-.23-2.56-.92-3.58-2.14-.7-.82-1.53-2.64-1.53-6.58v-57.92h19.47c3.09,0,5.71-1.04,7.77-3.1,2.06-2.06,3.1-4.67,3.1-7.76s-1.04-5.53-3.1-7.58c-2.05-2.06-4.67-3.1-7.77-3.1h-19.55v-23.46c0-3.45-1.17-6.37-3.46-8.67-2.3-2.3-5.21-3.45-8.67-3.45s-6.16,1.16-8.45,3.45c-2.3,2.3-3.47,5.21-3.47,8.67v23.46h-7.12c-2.98,0-5.54,1.04-7.59,3.1-2.06,2.06-3.09,4.61-3.09,7.58s1.03,5.7,3.09,7.77c2.06,2.06,4.62,3.1,7.59,3.1h7.12v55.95c0,.32.04.61.07.91v2.66c0,6.66,1.23,12.09,3.63,16.13,2.41,4.06,5.46,7.1,9.06,9.02,3.42,1.82,6.99,3,10.6,3.52,3.41.49,6.42.74,8.94.74,3.43,0,6.66-.37,9.64-1.09,2.92-.71,5.7-1.65,8.38-2.85,5.1-2.66,6.16-6.69,6.16-9.59s-1.09-5.47-3.15-7.36c-2.02-1.82-4.36-2.75-6.95-2.75"/>
      <path class="cls-1" d="M736.59,258.17c-4.79-2.29-9.93-4.08-15.27-5.33-5.15-1.21-10.03-2.37-14.64-3.51-4.28-1.05-7.78-2.45-10.38-4.14-2.05-1.33-3-3.12-3-5.63,0-3.02,1.55-5.53,4.75-7.66,3.52-2.34,8.73-3.53,15.49-3.53,4.24,0,8.23.32,11.86.96,3.67.64,7.09,1.49,10.14,2.5.56.19,1.12.33,1.64.41.56.1,1.18.14,1.9.14,3.08,0,5.71-1.11,7.81-3.3,2.06-2.16,3.11-4.72,3.11-7.61,0-2.04-.66-4.09-1.97-6.1-1.4-2.13-3.39-3.58-5.78-4.26-4.26-1.51-8.97-2.77-13.99-3.73-5.06-.97-10.48-1.46-16.12-1.46-13.68,0-24.21,3.29-31.29,9.8-7.15,6.57-10.77,14.92-10.77,24.83,0,6.64,1.65,12.2,4.9,16.5,3.15,4.17,7.29,7.5,12.3,9.91,4.78,2.29,9.87,4.11,15.12,5.42,5.09,1.28,9.96,2.49,14.57,3.62,4.36,1.07,7.91,2.37,10.55,3.84,2.52,1.42,2.85,3.05,2.85,4.32,0,3.65-1.31,6.24-4.1,8.2-3.03,2.12-8.2,3.2-15.34,3.2-5.62,0-10.53-.57-14.61-1.7-4.21-1.17-8.1-2.54-11.56-4.08-1.57-.69-3.19-1.05-4.78-1.05-3.08,0-5.78,1.2-7.79,3.49-1.93,2.21-2.93,4.71-2.93,7.43,0,3.74,1.61,6.85,4.63,8.98l.27.17c5.27,2.91,11.06,5.23,17.22,6.89,6.19,1.66,13.17,2.51,20.75,2.51,13.54,0,23.95-3.2,30.96-9.48,7.11-6.37,10.7-14.16,10.7-23.14,0-7.16-1.64-13.02-4.88-17.4-3.16-4.25-7.3-7.62-12.32-10.03"/>
      <path class="cls-1" d="M399.86,283.81c-3.08,0-6.19-.49-9.26-1.53-75.71-25.52-116.55-107.88-91.04-183.58,12.36-36.68,38.28-66.34,72.95-83.54,34.66-17.19,73.95-19.85,110.63-7.49,15.16,5.11,23.29,21.53,18.19,36.68-5.11,15.15-21.53,23.29-36.66,18.18-22.04-7.43-45.63-5.82-66.44,4.5-20.83,10.32-36.38,28.14-43.81,50.16-15.32,45.46,9.21,94.91,54.67,110.24,15.14,5.09,23.28,21.52,18.17,36.67-4.08,12.08-15.34,19.72-27.42,19.72"/>
      <path class="cls-1" d="M398.97,402.14c-15.32,0-30.86-2.45-46.15-7.61-15.16-5.11-23.3-21.53-18.19-36.67,5.1-15.15,21.53-23.29,36.68-18.18,22.02,7.42,45.61,5.82,66.45-4.51,20.81-10.31,36.36-28.14,43.79-50.15,15.32-45.47-9.21-94.91-54.66-110.23-15.16-5.11-23.29-21.53-18.19-36.68,5.11-15.15,21.52-23.3,36.68-18.18,75.71,25.51,116.55,107.87,91.03,183.58-20.36,60.42-76.93,98.63-137.42,98.64"/>
      <path class="cls-1" d="M152.1,48.97C68.22,48.97,0,117.2,0,201.07s68.22,152.1,152.1,152.1c15.95,0,28.87-12.93,28.87-28.87s-12.93-28.87-28.87-28.87c-52.03,0-94.36-42.33-94.36-94.36s42.33-94.36,94.36-94.36c40.28,0,74.73,25.38,88.24,60.97.82,2.26,1.66,4.75,2.42,7.34,1.84,6.25-3.41,8.45-7.6,9.6-23.65,6.1-60.84,12.81-106.84,11.42-15.87-.48-29.25,12.05-29.72,27.98-.49,15.93,12.04,29.25,27.97,29.73,4.71.14,9.33.21,13.87.21,86.06,0,143.43-24.26,145.95-25.35,7.8-3.36,13.36-9.75,15.9-17.21,1.23-3.21,1.91-6.69,1.91-10.33,0-83.87-68.22-152.1-152.1-152.1"/>
    </g>
  </g>
</svg>