<?xml version="1.0" encoding="UTF-8"?>
<svg id="Camada_2" data-name="Camada 2" xmlns="http://www.w3.org/2000/svg" viewBox="0 0 1378.58 326.25">
  <defs>
    <style>
      .cls-1 {
        font-family: VarelaRound-Regular, 'Varela Round';
        font-size: 68.86px;
      }

      .cls-1, .cls-2, .cls-3 {
        fill: #fff;
      }

      .cls-4 {
        letter-spacing: -.01em;
      }

      .cls-5 {
        letter-spacing: 0em;
      }

      .cls-6 {
        letter-spacing: -.01em;
      }

      .cls-3 {
        font-family: MyriadPro-Regular, 'Myriad Pro';
        font-size: 118.95px;
      }

      .cls-7 {
        letter-spacing: 0em;
      }

      .cls-8 {
        letter-spacing: 0em;
      }

      .cls-9 {
        letter-spacing: 0em;
      }
    </style>
  </defs>
  <g id="Layer_1" data-name="Layer 1">
    <g>
      <text class="cls-1" transform="translate(331.54 306.56)"><tspan class="cls-5" x="0" y="0">O</tspan><tspan class="cls-6" x="55.29" y="0">r</tspan><tspan x="80.7" y="0">ganic </tspan><tspan class="cls-8" x="276.53" y="0">S</tspan><tspan class="cls-9" x="318.47" y="0">kin </tspan><tspan class="cls-7" x="432.98" y="0">C</tspan><tspan class="cls-4" x="480.42" y="0">r</tspan><tspan x="505.76" y="0">eam</tspan></text>
      <path class="cls-2" d="M171.72,72.15c8.56,9.12,12.84,21.84,12.83,38.16v68.64c-.01,3.52-1.13,6.44-3.37,8.76-2.24,2.32-5.2,3.48-8.88,3.48s-6.44-1.16-8.76-3.48-3.48-5.24-3.48-8.76v-68.64c.02-9.75-2.43-17.16-7.31-22.2-4.88-5.04-11.4-7.56-19.56-7.56-8.32,0-15.16,2.88-20.52,8.64-5.36,5.76-8.04,13.12-8.04,22.08v67.67c-.01,3.52-1.13,6.44-3.37,8.76-2.24,2.32-5.2,3.48-8.88,3.48s-6.44-1.16-8.76-3.48c-2.32-2.32-3.48-5.24-3.48-8.76v-68.63c.01-9.76-2.43-17.16-7.31-22.2-4.88-5.04-11.4-7.56-19.56-7.56-8.48,0-15.4,2.88-20.76,8.64-5.36,5.76-8.04,13.12-8.04,22.07v67.68c-.01,3.52-1.13,6.44-3.37,8.76-2.24,2.32-5.2,3.48-8.88,3.48s-6.44-1.16-8.76-3.48c-2.32-2.31-3.48-5.23-3.48-8.76l.02-106.79c0-3.68,1.16-6.63,3.48-8.88,2.32-2.24,5.24-3.36,8.76-3.36,3.51,0,6.39,1.08,8.64,3.24,2.24,2.16,3.44,5,3.6,8.52,4.16-4.16,9.12-7.4,14.88-9.72,5.76-2.32,12-3.48,18.72-3.48,8.16,0,15.48,1.65,21.96,4.92,6.48,3.28,11.79,7.96,15.95,14.05,4.8-5.92,10.8-10.56,18-13.92,7.2-3.36,15.19-5.03,24-5.03,13.92,0,25.16,4.56,33.72,13.68"/>
      <path class="cls-2" d="M324.82,70.26c0,1.6-.48,3.52-1.44,5.76l-73.46,165.09c-1.92,4.96-5.04,7.44-9.36,7.44-1.6,0-3.52-.48-5.76-1.44-4.8-2.08-7.2-5.2-7.2-9.36,0-1.92.48-3.84,1.44-5.76l24.01-53.99-53.98-102.48c-.8-1.44-1.2-3.12-1.2-5.04,0-2.08.64-3.99,1.92-5.76,1.28-1.76,2.96-3.12,5.04-4.08,1.44-.64,3.04-.96,4.8-.96,4.48,0,7.84,2.24,10.08,6.72l43.9,87.36,38.65-87.11c2.08-4.64,5.2-6.96,9.36-6.95,2.08,0,4,.4,5.76,1.2,4.96,1.92,7.44,5.04,7.44,9.36"/>
      <path class="cls-2" d="M518.72,72.21c8.56,9.12,12.84,21.84,12.83,38.16v68.64c-.01,3.52-1.13,6.44-3.37,8.76-2.24,2.32-5.2,3.48-8.88,3.48s-6.44-1.16-8.76-3.48c-2.32-2.32-3.48-5.24-3.48-8.76v-68.64c.02-9.75-2.43-17.16-7.31-22.2-4.88-5.04-11.4-7.56-19.56-7.56s-15.16,2.88-20.52,8.64c-5.36,5.76-8.04,13.12-8.04,22.08v67.67c-.01,3.52-1.13,6.44-3.37,8.76-2.24,2.32-5.2,3.48-8.88,3.48s-6.44-1.16-8.76-3.48c-2.32-2.32-3.48-5.24-3.48-8.76v-68.63c.01-9.76-2.43-17.16-7.31-22.2-4.88-5.04-11.4-7.56-19.56-7.56-8.48,0-15.4,2.88-20.76,8.64-5.36,5.76-8.04,13.12-8.04,22.07v67.68c-.01,3.52-1.13,6.44-3.37,8.76-2.24,2.32-5.2,3.48-8.88,3.48s-6.44-1.16-8.76-3.48c-2.32-2.31-3.48-5.24-3.48-8.76l.02-106.79c0-3.68,1.16-6.63,3.48-8.88,2.32-2.24,5.24-3.36,8.76-3.36,3.51,0,6.39,1.08,8.64,3.24,2.24,2.16,3.44,5,3.6,8.52,4.16-4.16,9.12-7.4,14.88-9.72,5.76-2.32,12-3.48,18.72-3.48,8.16,0,15.48,1.65,21.96,4.92,6.48,3.28,11.79,7.96,15.95,14.05,4.8-5.92,10.8-10.56,18-13.92,7.2-3.36,15.19-5.03,24-5.03,13.92,0,25.16,4.56,33.72,13.68"/>
      <path class="cls-2" d="M933.16,72.27c8.56,9.12,12.84,21.84,12.83,38.16v68.64c-.01,3.52-1.13,6.44-3.37,8.76-2.24,2.32-5.2,3.48-8.88,3.48s-6.44-1.16-8.76-3.48c-2.32-2.32-3.48-5.24-3.48-8.76v-68.64c.02-9.75-2.43-17.16-7.31-22.2-4.88-5.04-11.4-7.56-19.56-7.56-8.32,0-15.16,2.88-20.52,8.64-5.36,5.76-8.04,13.12-8.04,22.08v67.67c-.01,3.52-1.13,6.44-3.37,8.76-2.24,2.32-5.2,3.48-8.88,3.48s-6.44-1.16-8.76-3.48c-2.32-2.32-3.48-5.24-3.48-8.76v-68.63c.01-9.76-2.43-17.16-7.31-22.2-4.88-5.04-11.4-7.56-19.56-7.56-8.48,0-15.4,2.88-20.76,8.64-5.36,5.76-8.04,13.12-8.04,22.07v67.68c-.01,3.52-1.13,6.44-3.37,8.76-2.24,2.32-5.2,3.48-8.88,3.48s-6.44-1.16-8.76-3.48c-2.32-2.31-3.48-5.24-3.48-8.76l.02-106.79c0-3.68,1.16-6.63,3.48-8.88,2.32-2.24,5.24-3.36,8.76-3.36,3.51,0,6.39,1.08,8.64,3.24,2.24,2.16,3.44,5,3.6,8.52,4.16-4.16,9.12-7.4,14.88-9.72,5.76-2.32,12-3.48,18.72-3.48,8.16,0,15.48,1.65,21.96,4.92,6.48,3.28,11.79,7.96,15.95,14.05,4.8-5.92,10.8-10.56,18-13.92,7.2-3.36,15.19-5.03,24-5.03,13.92,0,25.16,4.56,33.72,13.68"/>
      <path class="cls-2" d="M1088.19,130.97c-2.08,2-4.72,3-7.92,3l-91.19-.02c1.76,11.21,6.83,20.24,15.23,27.12,8.4,6.88,18.67,10.32,30.84,10.33,4.8,0,9.8-.88,15-2.64,5.2-1.76,9.48-3.92,12.84-6.48,2.24-1.76,4.88-2.64,7.92-2.64s5.43.8,7.2,2.4c2.88,2.4,4.32,5.12,4.32,8.16s-1.28,5.28-3.84,7.2c-5.44,4.32-12.2,7.84-20.28,10.55-8.08,2.72-15.8,4.08-23.16,4.07-13.12,0-24.88-2.84-35.28-8.53-10.4-5.68-18.52-13.56-24.35-23.64-5.84-10.08-8.76-21.52-8.76-34.32,0-12.8,2.76-24.28,8.29-34.43,5.52-10.16,13.2-18.07,23.04-23.76,9.84-5.68,21-8.52,33.48-8.52s22.96,2.72,31.91,8.16c8.96,5.44,15.84,13.05,20.63,22.8,4.8,9.76,7.2,20.97,7.2,33.6,0,3.04-1.04,5.56-3.12,7.56M1003.12,89.08c-7.29,6.4-11.88,14.96-13.8,25.68h79.91c-1.44-10.7-5.43-19.27-11.99-25.67-6.56-6.4-15.11-9.6-25.68-9.6-11.68,0-21.16,3.2-28.44,9.59"/>
      <path class="cls-2" d="M1207.94,65.84c8.8,4.8,15.68,11.8,20.63,21,4.96,9.2,7.44,20.28,7.44,33.24v59.04c-.01,3.52-1.17,6.44-3.49,8.76-2.32,2.32-5.24,3.48-8.76,3.48s-6.44-1.16-8.76-3.48c-2.32-2.32-3.48-5.24-3.48-8.76v-59.04c0-12.96-3.47-22.76-10.43-29.4-6.95-6.64-16.2-9.97-27.71-9.97-6.72,0-12.84,1.36-18.36,4.08-5.52,2.72-9.84,6.4-12.96,11.03-3.12,4.64-4.68,9.84-4.68,15.6v67.68c-.01,3.52-1.13,6.44-3.37,8.76-2.24,2.32-5.2,3.48-8.88,3.48s-6.44-1.16-8.76-3.48c-2.32-2.31-3.48-5.23-3.48-8.76l.02-107.03c0-3.68,1.16-6.63,3.48-8.88,2.32-2.24,5.24-3.36,8.76-3.36s6.63,1.12,8.88,3.36c2.24,2.24,3.36,5.2,3.36,8.88v2.64c5.12-5.12,11.2-9.07,18.24-11.87,7.04-2.79,14.56-4.2,22.56-4.2,11.04,0,20.96,2.4,29.76,7.2"/>
      <path class="cls-2" d="M1333.66,170.49c2,2.24,3,5.12,3,8.64,0,3.52-1.32,6.4-3.96,8.64-2.64,2.24-6.04,3.36-10.2,3.36h-4.32c-7.84,0-15-2.04-21.48-6.12-6.48-4.08-11.56-9.64-15.24-16.68-3.68-7.04-5.51-14.96-5.51-23.76v-59.27s-11.03,0-11.03,0c-3.36,0-6.08-.96-8.16-2.88-2.08-1.92-3.12-4.32-3.12-7.2,0-3.2,1.04-5.76,3.12-7.68,2.08-1.92,4.8-2.88,8.16-2.88h11.04s0-34.55,0-34.55c0-3.52,1.12-6.39,3.36-8.64,2.24-2.24,5.12-3.36,8.64-3.36s6.4,1.12,8.64,3.36c2.24,2.24,3.36,5.12,3.36,8.64v34.55s20.39,0,20.39,0c3.36,0,6.08.96,8.16,2.88,2.08,1.92,3.12,4.48,3.12,7.68,0,2.88-1.04,5.28-3.12,7.2-2.08,1.92-4.8,2.88-8.16,2.88h-20.4s-.01,59.27-.01,59.27c0,6.4,1.76,11.76,5.28,16.08,3.52,4.32,7.84,6.48,12.96,6.48h8.16c2.88,0,5.32,1.12,7.32,3.36"/>
      <path class="cls-2" d="M649.22,214.48c-51.64-.46-93.28-42.85-92.83-94.49.46-51.64,42.85-93.29,94.49-92.83,51.65.46,93.28,42.85,92.83,94.49-.46,51.64-42.85,93.29-94.49,92.83M650.46,75.06c-25.23-.23-45.94,20.12-46.17,45.35-.22,25.23,20.12,45.93,45.35,46.16,25.23.23,45.94-20.12,46.17-45.35.22-25.23-20.12-45.94-45.35-46.17"/>
      <text class="cls-3" transform="translate(1328.74 99.56)"><tspan x="0" y="0">®</tspan></text>
    </g>
  </g>
</svg>